<?xml version='1.0' encoding='UTF-8'?>
<svg xmlns="http://www.w3.org/2000/svg" height="1807.21pt" viewBox="0 0 1722.0 1807.21" width="1722.0pt"><rect fill="white" height="1807.21" width="1722.0" x="0" y="0" /><svg height="1689.21" viewBox="0.00 0.00 841.00 1689.21" width="841.0" x="0" y="0">
<g class="graph" id="lane0_graph0" transform="scale(1 1) rotate(0) translate(18 1671.2083)">
<title>G</title>
<polygon fill="#ffffff" points="-18,18 -18,-1671.2083 823,-1671.2083 823,18 -18,18" stroke="transparent" />
<text fill="#000000" font-family="sans-serif" font-size="16.00" text-anchor="middle" x="402.5" y="-1636.4083">Triton 기준 · Forward · L768 · BF16 B1 D=h=128</text>
<text fill="#000000" font-family="sans-serif" font-size="16.00" text-anchor="middle" x="402.5" y="-1618.4083">기준: 8c7d8b39 · 동일 융합 / 저장값 · H100 경로는 개발 checkout의 선택 옵션</text>
<text fill="#000000" font-family="sans-serif" font-size="16.00" text-anchor="middle" x="402.5" y="-1600.4083">전체 학습 FWD+BWD: 6.286 → 6.119 ms (1.027×) · compile + CUDA graph · dropout=0.25/RNG 포함</text>
<text fill="#000000" font-family="sans-serif" font-size="16.00" text-anchor="middle" x="402.5" y="-1582.4083">청색 Triton / 녹색 CuTe TMA+WGMMA / 보라 cuBLAS / 노랑 HBM · 색상 외곽선 = 커널 경계</text>
<text fill="#000000" font-family="sans-serif" font-size="16.00" text-anchor="middle" x="402.5" y="-1564.4083">아래 config는 실측 후보이며 shape 하드코딩이나 전체 cache 완료를 뜻하지 않음</text>
<g class="cluster" id="lane0_clust1">
<title>cluster_ln</title>
<path d="M83.75,-1333.125C83.75,-1333.125 311.75,-1333.125 311.75,-1333.125 317.75,-1333.125 323.75,-1339.125 323.75,-1345.125 323.75,-1345.125 323.75,-1474.125 323.75,-1474.125 323.75,-1480.125 317.75,-1486.125 311.75,-1486.125 311.75,-1486.125 83.75,-1486.125 83.75,-1486.125 77.75,-1486.125 71.75,-1480.125 71.75,-1474.125 71.75,-1474.125 71.75,-1345.125 71.75,-1345.125 71.75,-1339.125 77.75,-1333.125 83.75,-1333.125" fill="#eef5ff" stroke="#2868ba" stroke-width="2" />
<text fill="#000000" font-family="monospace" font-size="11.00" text-anchor="middle" x="197.75" y="-1473.325">F1 · layer_norm_fwd_fused</text>
<text fill="#000000" font-family="monospace" font-size="11.00" text-anchor="middle" x="197.75" y="-1461.325">Triton · 1 kernel</text>
</g>
<g class="cluster" id="lane0_clust2">
<title>cluster_front</title>
<path d="M77.75,-1032.125C77.75,-1032.125 317.75,-1032.125 317.75,-1032.125 323.75,-1032.125 329.75,-1038.125 329.75,-1044.125 329.75,-1044.125 329.75,-1243.125 329.75,-1243.125 329.75,-1249.125 323.75,-1255.125 317.75,-1255.125 317.75,-1255.125 77.75,-1255.125 77.75,-1255.125 71.75,-1255.125 65.75,-1249.125 65.75,-1243.125 65.75,-1243.125 65.75,-1044.125 65.75,-1044.125 65.75,-1038.125 71.75,-1032.125 77.75,-1032.125" fill="#eef5ff" stroke="#2868ba" stroke-width="2" />
<text fill="#000000" font-family="monospace" font-size="11.00" text-anchor="middle" x="197.75" y="-1242.325">F2 · _bidir_front_kernel</text>
<text fill="#000000" font-family="monospace" font-size="11.00" text-anchor="middle" x="197.75" y="-1230.325">Triton · 1 kernel</text>
</g>
<g class="cluster" id="lane0_clust4">
<title>cluster_co</title>
<path d="M86.75,-851.375C86.75,-851.375 260.75,-851.375 260.75,-851.375 266.75,-851.375 272.75,-857.375 272.75,-863.375 272.75,-863.375 272.75,-931.375 272.75,-931.375 272.75,-937.375 266.75,-943.375 260.75,-943.375 260.75,-943.375 86.75,-943.375 86.75,-943.375 80.75,-943.375 74.75,-937.375 74.75,-931.375 74.75,-931.375 74.75,-863.375 74.75,-863.375 74.75,-857.375 80.75,-851.375 86.75,-851.375" fill="#f7f0ff" stroke="#8655ad" stroke-width="2" />
<text fill="#000000" font-family="monospace" font-size="11.00" text-anchor="middle" x="173.75" y="-930.575">F3a · cuBLAS bmm</text>
<text fill="#000000" font-family="monospace" font-size="11.00" text-anchor="middle" x="173.75" y="-918.575">별도 GEMM 호출</text>
</g>
<g class="cluster" id="lane0_clust5">
<title>cluster_ci</title>
<path d="M292.75,-851.375C292.75,-851.375 466.75,-851.375 466.75,-851.375 472.75,-851.375 478.75,-857.375 478.75,-863.375 478.75,-863.375 478.75,-931.375 478.75,-931.375 478.75,-937.375 472.75,-943.375 466.75,-943.375 466.75,-943.375 292.75,-943.375 292.75,-943.375 286.75,-943.375 280.75,-937.375 280.75,-931.375 280.75,-931.375 280.75,-863.375 280.75,-863.375 280.75,-857.375 286.75,-851.375 292.75,-851.375" fill="#f7f0ff" stroke="#8655ad" stroke-width="2" />
<text fill="#000000" font-family="monospace" font-size="11.00" text-anchor="middle" x="379.75" y="-930.575">F3b · cuBLAS bmm</text>
<text fill="#000000" font-family="monospace" font-size="11.00" text-anchor="middle" x="379.75" y="-918.575">별도 GEMM 호출</text>
</g>
<g class="cluster" id="lane0_clust6">
<title>cluster_lo</title>
<path d="M183.75,-523.125C183.75,-523.125 367.75,-523.125 367.75,-523.125 373.75,-523.125 379.75,-529.125 379.75,-535.125 379.75,-535.125 379.75,-725.125 379.75,-725.125 379.75,-731.125 373.75,-737.125 367.75,-737.125 367.75,-737.125 183.75,-737.125 183.75,-737.125 177.75,-737.125 171.75,-731.125 171.75,-725.125 171.75,-725.125 171.75,-535.125 171.75,-535.125 171.75,-529.125 177.75,-523.125 183.75,-523.125" fill="#eef5ff" stroke="#2868ba" stroke-width="2" />
<text fill="#000000" font-family="monospace" font-size="11.00" text-anchor="middle" x="275.75" y="-724.325">F4 · _ln_mat_kernel</text>
<text fill="#000000" font-family="monospace" font-size="11.00" text-anchor="middle" x="275.75" y="-712.325">Triton · 1 kernel</text>
</g>
<g class="cluster" id="lane0_clust7">
<title>cluster_f567</title>
<path d="M369.75,-128.75C369.75,-128.75 726.75,-128.75 726.75,-128.75 732.75,-128.75 738.75,-134.75 738.75,-140.75 738.75,-140.75 738.75,-494.125 738.75,-494.125 738.75,-500.125 732.75,-506.125 726.75,-506.125 726.75,-506.125 369.75,-506.125 369.75,-506.125 363.75,-506.125 357.75,-500.125 357.75,-494.125 357.75,-494.125 357.75,-140.75 357.75,-140.75 357.75,-134.75 363.75,-128.75 369.75,-128.75" fill="#eef5ff" stroke="#2868ba" stroke-width="2" />
<text fill="#000000" font-family="monospace" font-size="11.00" text-anchor="middle" x="548.25" y="-493.325">F5 + F6 + F7 · _output_f567_kernel</text>
<text fill="#000000" font-family="monospace" font-size="11.00" text-anchor="middle" x="548.25" y="-481.325">Triton · 1 kernel</text>
<text fill="#000000" font-family="monospace" font-size="11.00" text-anchor="middle" x="548.25" y="-469.325">CSV: M 16/32/64/128 · N 32/64/128/256 · K 16/32/64/128</text>
<text fill="#000000" font-family="monospace" font-size="11.00" text-anchor="middle" x="548.25" y="-457.325">GROUP_M 1/2/4/8 · warps 1/2/4/8 · stages 2/3/4</text>
<text fill="#000000" font-family="monospace" font-size="11.00" text-anchor="middle" x="548.25" y="-445.325">KP/KG 길이 독립 · 물리 K 타일 공유</text>
</g>

<g class="node" id="lane0_node1">
<title>pair</title>
<ellipse cx="197.75" cy="-1531.1666" fill="#f5f7f8" rx="27" ry="18" stroke="#88989d" />
<text fill="#000000" font-family="sans-serif" font-size="11.00" text-anchor="middle" x="197.75" y="-1528.3666">pair</text>
</g>

<g class="node" id="lane0_node4">
<title>ln0</title>
<path d="M299.25,-1442.125C299.25,-1442.125 96.25,-1442.125 96.25,-1442.125 90.25,-1442.125 84.25,-1436.125 84.25,-1430.125 84.25,-1430.125 84.25,-1418.125 84.25,-1418.125 84.25,-1412.125 90.25,-1406.125 96.25,-1406.125 96.25,-1406.125 299.25,-1406.125 299.25,-1406.125 305.25,-1406.125 311.25,-1412.125 311.25,-1418.125 311.25,-1418.125 311.25,-1430.125 311.25,-1430.125 311.25,-1436.125 305.25,-1442.125 299.25,-1442.125" fill="#ffffff" stroke="#2868ba" />
<text fill="#000000" font-family="sans-serif" font-size="11.00" text-anchor="middle" x="197.75" y="-1421.325">μ = mean(pair), rstd = rsqrt(var + ε)</text>
</g>

<g class="edge" id="lane0_edge2">
<title>pair-&gt;ln0</title>
<path d="M197.75,-1513.0085C197.75,-1507.1402 197.75,-1500.2454 197.75,-1492.9351" fill="none" stroke="#566d7b" />
<polygon fill="#566d7b" points="200.0251,-1492.6223 197.75,-1486.1223 195.4751,-1492.6223 200.0251,-1492.6223" stroke="#566d7b" />
</g>

<g class="node" id="lane0_node24">
<title>f5675</title>
<path d="M490.75,-176.75C490.75,-176.75 430.75,-176.75 430.75,-176.75 424.75,-176.75 418.75,-170.75 418.75,-164.75 418.75,-164.75 418.75,-152.75 418.75,-152.75 418.75,-146.75 424.75,-140.75 430.75,-140.75 430.75,-140.75 490.75,-140.75 490.75,-140.75 496.75,-140.75 502.75,-146.75 502.75,-152.75 502.75,-152.75 502.75,-164.75 502.75,-164.75 502.75,-170.75 496.75,-176.75 490.75,-176.75" fill="#ffffff" stroke="#2868ba" />
<text fill="#000000" font-family="sans-serif" font-size="11.00" text-anchor="middle" x="460.75" y="-155.95">y = pair + v</text>
</g>

<g class="edge" id="lane0_edge26">
<title>pair-&gt;f5675</title>
<path d="M214.9426,-1517.0199C220.0964,-1513.3441 225.932,-1509.6989 231.75,-1507.125 271.2945,-1489.6305 296.3502,-1516.8769 326.75,-1486.125 351.5683,-1461.0192 381.4019,-1208.8765 391.75,-1175.125 400.3386,-1147.1124 403.7616,-1140.3885 416.75,-1114.125 435.4701,-1076.2718 439.206,-1065.7526 464.75,-1032.125 481.3619,-1010.2562 536.9326,-967.1085 550.75,-943.375 576.2198,-899.6269 666.5465,-555.2543 678.75,-506.125 694.7589,-441.6757 702.0491,-425.8189 708.75,-359.75 715.8868,-289.3829 738.9783,-252.5343 689.75,-201.75 665.4184,-176.6493 569.5568,-165.8415 509.8435,-161.4685" fill="none" stroke="#84929a" stroke-dasharray="5,2" />
<polygon fill="#84929a" points="509.7513,-159.1813 503.1067,-160.9911 509.4296,-163.7199 509.7513,-159.1813" stroke="#84929a" />
<text fill="#000000" font-family="sans-serif" font-size="9.00" text-anchor="middle" x="606.75" y="-836.175">residual</text>
</g>

<g class="node" id="lane0_node2">
<title>mask</title>
<ellipse cx="485.75" cy="-1531.1666" fill="#f5f7f8" rx="44.6985" ry="18" stroke="#88989d" />
<text fill="#000000" font-family="sans-serif" font-size="11.00" text-anchor="middle" x="485.75" y="-1528.3666">pair mask</text>
</g>

<g class="node" id="lane0_node9">
<title>front2</title>
<path d="M290.25,-1080.125C290.25,-1080.125 105.25,-1080.125 105.25,-1080.125 99.25,-1080.125 93.25,-1074.125 93.25,-1068.125 93.25,-1068.125 93.25,-1056.125 93.25,-1056.125 93.25,-1050.125 99.25,-1044.125 105.25,-1044.125 105.25,-1044.125 290.25,-1044.125 290.25,-1044.125 296.25,-1044.125 302.25,-1050.125 302.25,-1056.125 302.25,-1056.125 302.25,-1068.125 302.25,-1068.125 302.25,-1074.125 296.25,-1080.125 290.25,-1080.125" fill="#ffffff" stroke="#2868ba" />
<text fill="#000000" font-family="sans-serif" font-size="11.00" text-anchor="middle" x="197.75" y="-1065.325">left = BF16(pL × σ(gL)) × mask</text>
<text fill="#000000" font-family="sans-serif" font-size="11.00" text-anchor="middle" x="197.75" y="-1053.325">right = BF16(pR × σ(gR)) × mask</text>
</g>

<g class="edge" id="lane0_edge7">
<title>mask-&gt;front2</title>
<path d="M487.7721,-1512.9329C493.2088,-1454.5551 502.2377,-1269.7974 413.75,-1162.125 382.6774,-1124.3156 372.6667,-1113.721 328.75,-1092.125 321.242,-1088.433 313.2671,-1085.1866 305.1032,-1082.3336" fill="none" stroke="#84929a" stroke-dasharray="5,2" />
<polygon fill="#84929a" points="305.7142,-1080.1389 298.8281,-1080.2276 304.2665,-1084.4525 305.7142,-1080.1389" stroke="#84929a" />
</g>

<g class="node" id="lane0_node3">
<title>ds</title>
<ellipse cx="332.75" cy="-1531.1666" fill="#f5f7f8" rx="94.0904" ry="24.0833" stroke="#88989d" />
<text fill="#000000" font-family="sans-serif" font-size="11.00" text-anchor="middle" x="332.75" y="-1534.3666">dropout scale</text>
<text fill="#000000" font-family="sans-serif" font-size="11.00" text-anchor="middle" x="332.75" y="-1522.3666">난수/scale 생성은 별도</text>
</g>

<g class="node" id="lane0_node23">
<title>f5674</title>
<path d="M519.75,-237.75C519.75,-237.75 401.75,-237.75 401.75,-237.75 395.75,-237.75 389.75,-231.75 389.75,-225.75 389.75,-225.75 389.75,-213.75 389.75,-213.75 389.75,-207.75 395.75,-201.75 401.75,-201.75 401.75,-201.75 519.75,-201.75 519.75,-201.75 525.75,-201.75 531.75,-207.75 531.75,-213.75 531.75,-213.75 531.75,-225.75 531.75,-225.75 531.75,-231.75 525.75,-237.75 519.75,-237.75" fill="#ffffff" stroke="#2868ba" />
<text fill="#000000" font-family="sans-serif" font-size="11.00" text-anchor="middle" x="460.75" y="-216.95">v = v × dropout_scale</text>
</g>

<g class="edge" id="lane0_edge25">
<title>ds-&gt;f5674</title>
<path d="M346.0962,-1506.8922C349.3031,-1500.3028 352.4592,-1493.067 354.75,-1486.125 377.6958,-1416.5889 384.8619,-1228.9717 414.75,-1162.125 464.8968,-1049.9682 528.7809,-1053.2487 583.75,-943.375 703.6282,-703.7592 707.7146,-626.3125 734.75,-359.75 736.3645,-343.8317 743.8372,-336.919 734.75,-323.75 711.7129,-290.3653 611.0904,-258.2248 538.4593,-238.7281" fill="none" stroke="#84929a" stroke-dasharray="5,2" />
<polygon fill="#84929a" points="538.829,-236.4723 531.9624,-236.9977 537.6579,-240.8691 538.829,-236.4723" stroke="#84929a" />
</g>

<g class="node" id="lane0_node5">
<title>ln1</title>
<path d="M294.25,-1381.125C294.25,-1381.125 101.25,-1381.125 101.25,-1381.125 95.25,-1381.125 89.25,-1375.125 89.25,-1369.125 89.25,-1369.125 89.25,-1357.125 89.25,-1357.125 89.25,-1351.125 95.25,-1345.125 101.25,-1345.125 101.25,-1345.125 294.25,-1345.125 294.25,-1345.125 300.25,-1345.125 306.25,-1351.125 306.25,-1357.125 306.25,-1357.125 306.25,-1369.125 306.25,-1369.125 306.25,-1375.125 300.25,-1381.125 294.25,-1381.125" fill="#ffffff" stroke="#2868ba" />
<text fill="#000000" font-family="sans-serif" font-size="11.00" text-anchor="middle" x="197.75" y="-1360.325">x_n = (pair − μ) × rstd × γin + βin</text>
</g>

<g class="edge" id="lane0_edge1">
<title>ln0-&gt;ln1</title>
<path d="M197.75,-1405.823C197.75,-1400.2738 197.75,-1394.0797 197.75,-1388.1682" fill="none" stroke="#566d7b" />
<polygon fill="#566d7b" points="200.0251,-1387.9141 197.75,-1381.4141 195.4751,-1387.9141 200.0251,-1387.9141" stroke="#566d7b" />
</g>

<g class="node" id="lane0_node6">
<title>xn</title>
<path d="M257.75,-1308.8523C257.75,-1310.6581 230.857,-1312.125 197.75,-1312.125 164.643,-1312.125 137.75,-1310.6581 137.75,-1308.8523 137.75,-1308.8523 137.75,-1279.3977 137.75,-1279.3977 137.75,-1277.5919 164.643,-1276.125 197.75,-1276.125 230.857,-1276.125 257.75,-1277.5919 257.75,-1279.3977 257.75,-1279.3977 257.75,-1308.8523 257.75,-1308.8523" fill="#fff7df" stroke="#b78b43" />
<path d="M257.75,-1308.8523C257.75,-1307.0464 230.857,-1305.5795 197.75,-1305.5795 164.643,-1305.5795 137.75,-1307.0464 137.75,-1308.8523" fill="none" stroke="#b78b43" />
<text fill="#000000" font-family="sans-serif" font-size="11.00" text-anchor="middle" x="197.75" y="-1291.325">x_n [M,128] · HBM</text>
</g>

<g class="edge" id="lane0_edge3">
<title>ln1-&gt;xn</title>
<path d="M197.75,-1344.9961C197.75,-1337.0565 197.75,-1327.611 197.75,-1319.0269" fill="none" stroke="#566d7b" />
<polygon fill="#566d7b" points="200.0251,-1318.8724 197.75,-1312.3724 195.4751,-1318.8725 200.0251,-1318.8724" stroke="#566d7b" />
</g>

<g class="node" id="lane0_node7">
<title>front0</title>
<path d="M305.75,-1211.125C305.75,-1211.125 89.75,-1211.125 89.75,-1211.125 83.75,-1211.125 77.75,-1205.125 77.75,-1199.125 77.75,-1199.125 77.75,-1187.125 77.75,-1187.125 77.75,-1181.125 83.75,-1175.125 89.75,-1175.125 89.75,-1175.125 305.75,-1175.125 305.75,-1175.125 311.75,-1175.125 317.75,-1181.125 317.75,-1187.125 317.75,-1187.125 317.75,-1199.125 317.75,-1199.125 317.75,-1205.125 311.75,-1211.125 305.75,-1211.125" fill="#ffffff" stroke="#2868ba" />
<text fill="#000000" font-family="sans-serif" font-size="11.00" text-anchor="middle" x="197.75" y="-1196.325">4 projections: pL=x_n·WL, gL=x_n·WLg</text>
<text fill="#000000" font-family="sans-serif" font-size="11.00" text-anchor="middle" x="197.75" y="-1184.325">pR=x_n·WR, gR=x_n·WRg</text>
</g>

<g class="edge" id="lane0_edge6">
<title>xn-&gt;front0</title>
<path d="M197.75,-1276.0682C197.75,-1271.7627 197.75,-1266.9117 197.75,-1261.7713" fill="none" stroke="#566d7b" />
<polygon fill="#566d7b" points="200.0251,-1261.6246 197.75,-1255.1246 195.4751,-1261.6247 200.0251,-1261.6246" stroke="#566d7b" />
</g>

<g class="node" id="lane0_node20">
<title>f5671</title>
<path d="M659.75,-426.125C659.75,-426.125 561.75,-426.125 561.75,-426.125 555.75,-426.125 549.75,-420.125 549.75,-414.125 549.75,-414.125 549.75,-402.125 549.75,-402.125 549.75,-396.125 555.75,-390.125 561.75,-390.125 561.75,-390.125 659.75,-390.125 659.75,-390.125 665.75,-390.125 671.75,-396.125 671.75,-402.125 671.75,-402.125 671.75,-414.125 671.75,-414.125 671.75,-420.125 665.75,-426.125 659.75,-426.125" fill="#ffffff" stroke="#2868ba" />
<text fill="#000000" font-family="sans-serif" font-size="11.00" text-anchor="middle" x="610.75" y="-405.325">glogit = x_n @ Wg</text>
</g>

<g class="edge" id="lane0_edge24">
<title>xn-&gt;f5671</title>
<path d="M227.8799,-1276.0924C237.4495,-1271.1185 248.274,-1266.239 258.75,-1263.125 274.6046,-1258.4121 321.1566,-1266.9221 332.75,-1255.125 369.0341,-1218.2033 317.9276,-1060.4949 353.75,-1023.125 381.675,-993.9936 417.1678,-1041.4867 443.75,-1011.125 457.4368,-995.4921 449.1726,-984.4327 443.75,-964.375 442.0374,-958.0403 432.5355,-956.4049 436.75,-951.375 449.7964,-935.8047 468.7036,-958.9453 481.75,-943.375 508.0108,-912.0338 508.9961,-881.8635 481.75,-851.375 460.59,-827.6969 431.91,-867.0531 410.75,-843.375 403.9128,-835.7241 415.0721,-831.2802 417.75,-821.375 425.0864,-794.2381 433.5099,-781.4029 417.75,-758.125 409.6991,-746.2336 395.8009,-758.0164 387.75,-746.125 384.1371,-740.7886 384.3075,-519.5729 387.75,-514.125 421.5672,-460.6073 490.5814,-433.5602 542.9288,-420.2533" fill="none" stroke="#84929a" stroke-dasharray="5,2" />
<polygon fill="#84929a" points="543.7838,-422.3857 549.5499,-418.6203 542.6942,-417.9681 543.7838,-422.3857" stroke="#84929a" />
<text fill="#000000" font-family="sans-serif" font-size="9.00" text-anchor="middle" x="524.75" y="-879.175">x_n 재사용</text>
</g>

<g class="node" id="lane0_node8">
<title>front1</title>
<path d="M227.75,-1150.125C227.75,-1150.125 167.75,-1150.125 167.75,-1150.125 161.75,-1150.125 155.75,-1144.125 155.75,-1138.125 155.75,-1138.125 155.75,-1126.125 155.75,-1126.125 155.75,-1120.125 161.75,-1114.125 167.75,-1114.125 167.75,-1114.125 227.75,-1114.125 227.75,-1114.125 233.75,-1114.125 239.75,-1120.125 239.75,-1126.125 239.75,-1126.125 239.75,-1138.125 239.75,-1138.125 239.75,-1144.125 233.75,-1150.125 227.75,-1150.125" fill="#ffffff" stroke="#2868ba" />
<text fill="#000000" font-family="sans-serif" font-size="11.00" text-anchor="middle" x="197.75" y="-1129.325">σ(gL), σ(gR)</text>
</g>

<g class="edge" id="lane0_edge4">
<title>front0-&gt;front1</title>
<path d="M197.75,-1174.823C197.75,-1169.2738 197.75,-1163.0797 197.75,-1157.1682" fill="none" stroke="#566d7b" />
<polygon fill="#566d7b" points="200.0251,-1156.9141 197.75,-1150.4141 195.4751,-1156.9141 200.0251,-1156.9141" stroke="#566d7b" />
</g>

<g class="node" id="lane0_node11">
<title>pre</title>
<path d="M436.75,-1006.7733C436.75,-1009.1059 404.4784,-1011.0007 364.75,-1011.0007 325.0216,-1011.0007 292.75,-1009.1059 292.75,-1006.7733 292.75,-1006.7733 292.75,-968.7267 292.75,-968.7267 292.75,-966.3941 325.0216,-964.4993 364.75,-964.4993 404.4784,-964.4993 436.75,-966.3941 436.75,-968.7267 436.75,-968.7267 436.75,-1006.7733 436.75,-1006.7733" fill="#fff7df" stroke="#b78b43" />
<path d="M436.75,-1006.7733C436.75,-1004.4407 404.4784,-1002.5459 364.75,-1002.5459 325.0216,-1002.5459 292.75,-1004.4407 292.75,-1006.7733" fill="none" stroke="#b78b43" />
<text fill="#000000" font-family="sans-serif" font-size="11.00" text-anchor="middle" x="364.75" y="-990.95">raw pL,gL,pR,gR · HBM</text>
<text fill="#000000" font-family="sans-serif" font-size="11.00" text-anchor="middle" x="364.75" y="-978.95">backward용 저장</text>
</g>

<g class="edge" id="lane0_edge9">
<title>front0-&gt;pre</title>
<path d="M225.5428,-1174.9643C252.8207,-1155.3124 292.7318,-1121.2107 309.75,-1080.125 314.604,-1068.4063 306.5247,-1034.1764 312.75,-1023.125 314.1366,-1020.6635 315.7741,-1018.3381 317.5977,-1016.1466" fill="none" stroke="#84929a" stroke-dasharray="5,2" />
<polygon fill="#84929a" points="319.3775,-1017.5744 322.1598,-1011.2748 316.0563,-1014.4643 319.3775,-1017.5744" stroke="#84929a" />
<text fill="#000000" font-family="sans-serif" font-size="9.00" text-anchor="middle" x="314.25" y="-1094.925">store</text>
</g>

<g class="edge" id="lane0_edge5">
<title>front1-&gt;front2</title>
<path d="M197.75,-1114.0983C197.75,-1105.8345 197.75,-1095.905 197.75,-1086.9491" fill="none" stroke="#566d7b" />
<polygon fill="#566d7b" points="200.0251,-1086.8339 197.75,-1080.3339 195.4751,-1086.834 200.0251,-1086.8339" stroke="#566d7b" />
</g>

<g class="node" id="lane0_node10">
<title>lr</title>
<path d="M278.75,-1002.4773C278.75,-1004.2831 242.4445,-1005.75 197.75,-1005.75 153.0555,-1005.75 116.75,-1004.2831 116.75,-1002.4773 116.75,-1002.4773 116.75,-973.0227 116.75,-973.0227 116.75,-971.2169 153.0555,-969.75 197.75,-969.75 242.4445,-969.75 278.75,-971.2169 278.75,-973.0227 278.75,-973.0227 278.75,-1002.4773 278.75,-1002.4773" fill="#fff7df" stroke="#b78b43" />
<path d="M278.75,-1002.4773C278.75,-1000.6714 242.4445,-999.2045 197.75,-999.2045 153.0555,-999.2045 116.75,-1000.6714 116.75,-1002.4773" fill="none" stroke="#b78b43" />
<text fill="#000000" font-family="sans-serif" font-size="11.00" text-anchor="middle" x="197.75" y="-984.95">left / right [256,L,L] · HBM</text>
</g>

<g class="edge" id="lane0_edge8">
<title>front2-&gt;lr</title>
<path d="M197.75,-1044.1209C197.75,-1034.599 197.75,-1022.7665 197.75,-1012.4042" fill="none" stroke="#566d7b" />
<polygon fill="#566d7b" points="200.0251,-1012.3461 197.75,-1005.8461 195.4751,-1012.3461 200.0251,-1012.3461" stroke="#566d7b" />
</g>

<g class="node" id="lane0_node12">
<title>co0</title>
<path d="M248.25,-899.375C248.25,-899.375 99.25,-899.375 99.25,-899.375 93.25,-899.375 87.25,-893.375 87.25,-887.375 87.25,-887.375 87.25,-875.375 87.25,-875.375 87.25,-869.375 93.25,-863.375 99.25,-863.375 99.25,-863.375 248.25,-863.375 248.25,-863.375 254.25,-863.375 260.25,-869.375 260.25,-875.375 260.25,-875.375 260.25,-887.375 260.25,-887.375 260.25,-893.375 254.25,-899.375 248.25,-899.375" fill="#ffffff" stroke="#8655ad" />
<text fill="#000000" font-family="sans-serif" font-size="11.00" text-anchor="middle" x="173.75" y="-878.575">tri[:h] = left[:h] @ right[:h]ᵀ</text>
</g>

<g class="edge" id="lane0_edge10">
<title>lr-&gt;co0</title>
<path d="M193.6787,-969.7049C192.3803,-963.9501 190.8578,-957.2017 189.2428,-950.0436" fill="none" stroke="#566d7b" />
<polygon fill="#566d7b" points="191.3873,-949.2112 187.7374,-943.3713 186.9488,-950.2126 191.3873,-949.2112" stroke="#566d7b" />
</g>

<g class="node" id="lane0_node13">
<title>ci0</title>
<path d="M454.25,-899.375C454.25,-899.375 305.25,-899.375 305.25,-899.375 299.25,-899.375 293.25,-893.375 293.25,-887.375 293.25,-887.375 293.25,-875.375 293.25,-875.375 293.25,-869.375 299.25,-863.375 305.25,-863.375 305.25,-863.375 454.25,-863.375 454.25,-863.375 460.25,-863.375 466.25,-869.375 466.25,-875.375 466.25,-875.375 466.25,-887.375 466.25,-887.375 466.25,-893.375 460.25,-899.375 454.25,-899.375" fill="#ffffff" stroke="#8655ad" />
<text fill="#000000" font-family="sans-serif" font-size="11.00" text-anchor="middle" x="379.75" y="-878.575">tri[h:] = left[h:]ᵀ @ right[h:]</text>
</g>

<g class="edge" id="lane0_edge11">
<title>lr-&gt;ci0</title>
<path d="M230.0915,-969.5453C242.729,-962.3867 257.4513,-953.9925 274.7757,-943.9327" fill="none" stroke="#566d7b" />
<polygon fill="#566d7b" points="276.2768,-945.6914 280.7515,-940.4566 273.989,-941.7584 276.2768,-945.6914" stroke="#566d7b" />
</g>

<g class="node" id="lane0_node14">
<title>tri</title>
<path d="M410.75,-815.7277C410.75,-818.913 350.2408,-821.5005 275.75,-821.5005 201.2592,-821.5005 140.75,-818.913 140.75,-815.7277 140.75,-815.7277 140.75,-763.7723 140.75,-763.7723 140.75,-760.587 201.2592,-757.9995 275.75,-757.9995 350.2408,-757.9995 410.75,-760.587 410.75,-763.7723 410.75,-763.7723 410.75,-815.7277 410.75,-815.7277" fill="#fff7df" stroke="#b78b43" />
<path d="M410.75,-815.7277C410.75,-812.5423 350.2408,-809.9549 275.75,-809.9549 201.2592,-809.9549 140.75,-812.5423 140.75,-815.7277" fill="none" stroke="#b78b43" />
<text fill="#000000" font-family="sans-serif" font-size="11.00" text-anchor="middle" x="275.75" y="-798.95">tri [256,L,L] · HBM</text>
<text fill="#000000" font-family="sans-serif" font-size="11.00" text-anchor="middle" x="275.75" y="-786.95">두 GEMM이 최종 buffer의 다른 slice에 직접 기록</text>
<text fill="#000000" font-family="sans-serif" font-size="11.00" text-anchor="middle" x="275.75" y="-774.95">cat kernel 없음</text>
</g>

<g class="edge" id="lane0_edge12">
<title>co0-&gt;tri</title>
<path d="M193.9019,-863.2728C205.6914,-852.6825 221.0038,-838.9277 235.1901,-826.1843" fill="none" stroke="#566d7b" />
<polygon fill="#566d7b" points="237.0419,-827.579 240.3571,-821.5429 234.0013,-824.1941 237.0419,-827.579" stroke="#566d7b" />
</g>

<g class="edge" id="lane0_edge13">
<title>ci0-&gt;tri</title>
<path d="M359.2029,-863.2728C347.0768,-852.5896 331.2955,-838.6861 316.7248,-825.8492" fill="none" stroke="#566d7b" />
<polygon fill="#566d7b" points="318.218,-824.1327 311.8368,-821.5429 315.2101,-827.5468 318.218,-824.1327" stroke="#566d7b" />
</g>

<g class="node" id="lane0_node15">
<title>lo0</title>
<path d="M321.75,-693.125C321.75,-693.125 229.75,-693.125 229.75,-693.125 223.75,-693.125 217.75,-687.125 217.75,-681.125 217.75,-681.125 217.75,-669.125 217.75,-669.125 217.75,-663.125 223.75,-657.125 229.75,-657.125 229.75,-657.125 321.75,-657.125 321.75,-657.125 327.75,-657.125 333.75,-663.125 333.75,-669.125 333.75,-669.125 333.75,-681.125 333.75,-681.125 333.75,-687.125 327.75,-693.125 321.75,-693.125" fill="#ffffff" stroke="#2868ba" />
<text fill="#000000" font-family="sans-serif" font-size="11.00" text-anchor="middle" x="275.75" y="-672.325">μout, rstdout 계산</text>
</g>

<g class="edge" id="lane0_edge16">
<title>tri-&gt;lo0</title>
<path d="M275.75,-758.1248C275.75,-753.5967 275.75,-748.7988 275.75,-743.8839" fill="none" stroke="#566d7b" />
<polygon fill="#566d7b" points="278.0251,-743.6235 275.75,-737.1235 273.4751,-743.6235 278.0251,-743.6235" stroke="#566d7b" />
</g>

<g class="node" id="lane0_node16">
<title>lo1</title>
<path d="M353.75,-632.125C353.75,-632.125 197.75,-632.125 197.75,-632.125 191.75,-632.125 185.75,-626.125 185.75,-620.125 185.75,-620.125 185.75,-608.125 185.75,-608.125 185.75,-602.125 191.75,-596.125 197.75,-596.125 197.75,-596.125 353.75,-596.125 353.75,-596.125 359.75,-596.125 365.75,-602.125 365.75,-608.125 365.75,-608.125 365.75,-620.125 365.75,-620.125 365.75,-626.125 359.75,-632.125 353.75,-632.125" fill="#ffffff" stroke="#2868ba" />
<text fill="#000000" font-family="sans-serif" font-size="11.00" text-anchor="middle" x="275.75" y="-611.325">xhat = (tri − μout) × rstdout</text>
</g>

<g class="edge" id="lane0_edge14">
<title>lo0-&gt;lo1</title>
<path d="M275.75,-656.823C275.75,-651.2738 275.75,-645.0797 275.75,-639.1682" fill="none" stroke="#566d7b" />
<polygon fill="#566d7b" points="278.0251,-638.9141 275.75,-632.4141 273.4751,-638.9141 278.0251,-638.9141" stroke="#566d7b" />
</g>

<g class="node" id="lane0_node17">
<title>lo2</title>
<path d="M355.25,-571.125C355.25,-571.125 196.25,-571.125 196.25,-571.125 190.25,-571.125 184.25,-565.125 184.25,-559.125 184.25,-559.125 184.25,-547.125 184.25,-547.125 184.25,-541.125 190.25,-535.125 196.25,-535.125 196.25,-535.125 355.25,-535.125 355.25,-535.125 361.25,-535.125 367.25,-541.125 367.25,-547.125 367.25,-547.125 367.25,-559.125 367.25,-559.125 367.25,-565.125 361.25,-571.125 355.25,-571.125" fill="#ffffff" stroke="#2868ba" />
<text fill="#000000" font-family="sans-serif" font-size="11.00" text-anchor="middle" x="275.75" y="-550.325">xn_out = xhat × γout + βout</text>
</g>

<g class="edge" id="lane0_edge15">
<title>lo1-&gt;lo2</title>
<path d="M275.75,-595.823C275.75,-590.2738 275.75,-584.0797 275.75,-578.1682" fill="none" stroke="#566d7b" />
<polygon fill="#566d7b" points="278.0251,-577.9141 275.75,-571.4141 273.4751,-577.9141 278.0251,-577.9141" stroke="#566d7b" />
</g>

<g class="node" id="lane0_node18">
<title>norm</title>
<path d="M345.25,-427.1483C345.25,-429.4809 314.099,-431.3757 275.75,-431.3757 237.401,-431.3757 206.25,-429.4809 206.25,-427.1483 206.25,-427.1483 206.25,-389.1017 206.25,-389.1017 206.25,-386.7691 237.401,-384.8743 275.75,-384.8743 314.099,-384.8743 345.25,-386.7691 345.25,-389.1017 345.25,-389.1017 345.25,-427.1483 345.25,-427.1483" fill="#fff7df" stroke="#b78b43" />
<path d="M345.25,-427.1483C345.25,-424.8157 314.099,-422.9209 275.75,-422.9209 237.401,-422.9209 206.25,-424.8157 206.25,-427.1483" fill="none" stroke="#b78b43" />
<text fill="#000000" font-family="sans-serif" font-size="11.00" text-anchor="middle" x="275.75" y="-411.325">xn_out [M,256] · HBM</text>
<text fill="#000000" font-family="sans-serif" font-size="11.00" text-anchor="middle" x="275.75" y="-399.325">μout, rstdout도 저장</text>
</g>

<g class="edge" id="lane0_edge17">
<title>lo2-&gt;norm</title>
<path d="M275.75,-535.0538C275.75,-510.8765 275.75,-467.668 275.75,-438.4576" fill="none" stroke="#566d7b" />
<polygon fill="#566d7b" points="278.0251,-438.2192 275.75,-431.7192 273.4751,-438.2192 278.0251,-438.2192" stroke="#566d7b" />
</g>

<g class="node" id="lane0_node19">
<title>f5670</title>
<path d="M493.25,-359.75C493.25,-359.75 382.25,-359.75 382.25,-359.75 376.25,-359.75 370.25,-353.75 370.25,-347.75 370.25,-347.75 370.25,-335.75 370.25,-335.75 370.25,-329.75 376.25,-323.75 382.25,-323.75 382.25,-323.75 493.25,-323.75 493.25,-323.75 499.25,-323.75 505.25,-329.75 505.25,-335.75 505.25,-335.75 505.25,-347.75 505.25,-347.75 505.25,-353.75 499.25,-359.75 493.25,-359.75" fill="#ffffff" stroke="#2868ba" />
<text fill="#000000" font-family="sans-serif" font-size="11.00" text-anchor="middle" x="437.75" y="-338.95">proj = xn_out @ Wpᵀ</text>
</g>

<g class="edge" id="lane0_edge23">
<title>norm-&gt;f5670</title>
<path d="M330.1443,-385.8384C337.0881,-382.9934 344.3254,-380.0281 351.6183,-377.0401" fill="none" stroke="#566d7b" />
<polygon fill="#566d7b" points="352.6001,-379.0964 357.7523,-374.5268 350.875,-374.8861 352.6001,-379.0964" stroke="#566d7b" />
</g>

<g class="node" id="lane0_node22">
<title>f5673</title>
<path d="M519.25,-298.75C519.25,-298.75 402.25,-298.75 402.25,-298.75 396.25,-298.75 390.25,-292.75 390.25,-286.75 390.25,-286.75 390.25,-274.75 390.25,-274.75 390.25,-268.75 396.25,-262.75 402.25,-262.75 402.25,-262.75 519.25,-262.75 519.25,-262.75 525.25,-262.75 531.25,-268.75 531.25,-274.75 531.25,-274.75 531.25,-286.75 531.25,-286.75 531.25,-292.75 525.25,-298.75 519.25,-298.75" fill="#ffffff" stroke="#2868ba" />
<text fill="#000000" font-family="sans-serif" font-size="11.00" text-anchor="middle" x="460.75" y="-277.95">v = BF16(proj) × gate</text>
</g>

<g class="edge" id="lane0_edge19">
<title>f5670-&gt;f5673</title>
<path d="M444.6508,-323.448C446.7886,-317.7782 449.1802,-311.435 451.4527,-305.4081" fill="none" stroke="#566d7b" />
<polygon fill="#566d7b" points="453.6895,-305.9238 453.8541,-299.0391 449.4321,-304.3185 453.6895,-305.9238" stroke="#566d7b" />
</g>

<g class="node" id="lane0_node25">
<title>saved</title>
<path d="M747.25,-103.3983C747.25,-105.7309 698.1703,-107.6257 637.75,-107.6257 577.3297,-107.6257 528.25,-105.7309 528.25,-103.3983 528.25,-103.3983 528.25,-65.3517 528.25,-65.3517 528.25,-63.0191 577.3297,-61.1243 637.75,-61.1243 698.1703,-61.1243 747.25,-63.0191 747.25,-65.3517 747.25,-65.3517 747.25,-103.3983 747.25,-103.3983" fill="#fff7df" stroke="#b78b43" />
<path d="M747.25,-103.3983C747.25,-101.0657 698.1703,-99.1709 637.75,-99.1709 577.3297,-99.1709 528.25,-101.0657 528.25,-103.3983" fill="none" stroke="#b78b43" />
<text fill="#000000" font-family="sans-serif" font-size="11.00" text-anchor="middle" x="637.75" y="-87.575">proj / gate [M,128] · HBM</text>
<text fill="#000000" font-family="sans-serif" font-size="11.00" text-anchor="middle" x="637.75" y="-75.575">backward용 store만 · fwd 재읽기 없음</text>
</g>

<g class="edge" id="lane0_edge27">
<title>f5670-&gt;saved</title>
<path d="M505.2076,-323.6839C517.865,-317.5771 529.8864,-309.473 538.75,-298.75 566.8531,-264.7515 542.5783,-242.3802 559.75,-201.75 573.5059,-169.2021 596.5656,-136.0218 614.0536,-113.2813" fill="none" stroke="#84929a" stroke-dasharray="5,2" />
<polygon fill="#84929a" points="615.9511,-114.5472 618.1445,-108.0191 612.3589,-111.7545 615.9511,-114.5472" stroke="#84929a" />
<text fill="#000000" font-family="sans-serif" font-size="9.00" text-anchor="middle" x="579.25" y="-217.55">proj 저장</text>
</g>

<g class="node" id="lane0_node21">
<title>f5672</title>
<path d="M689.75,-359.75C689.75,-359.75 531.75,-359.75 531.75,-359.75 525.75,-359.75 519.75,-353.75 519.75,-347.75 519.75,-347.75 519.75,-335.75 519.75,-335.75 519.75,-329.75 525.75,-323.75 531.75,-323.75 531.75,-323.75 689.75,-323.75 689.75,-323.75 695.75,-323.75 701.75,-329.75 701.75,-335.75 701.75,-335.75 701.75,-347.75 701.75,-347.75 701.75,-353.75 695.75,-359.75 689.75,-359.75" fill="#ffffff" stroke="#2868ba" />
<text fill="#000000" font-family="sans-serif" font-size="11.00" text-anchor="middle" x="610.75" y="-338.95">gate = sigmoid(BF16(glogit))</text>
</g>

<g class="edge" id="lane0_edge18">
<title>f5671-&gt;f5672</title>
<path d="M610.75,-389.9877C610.75,-382.8172 610.75,-374.4574 610.75,-366.7309" fill="none" stroke="#566d7b" />
<polygon fill="#566d7b" points="613.0251,-366.3653 610.75,-359.8653 608.4751,-366.3654 613.0251,-366.3653" stroke="#566d7b" />
</g>

<g class="edge" id="lane0_edge20">
<title>f5672-&gt;f5673</title>
<path d="M566.1512,-323.6131C548.9994,-316.6381 529.2942,-308.6247 511.5975,-301.428" fill="none" stroke="#566d7b" />
<polygon fill="#566d7b" points="512.0552,-299.1582 505.177,-298.817 510.3411,-303.373 512.0552,-299.1582" stroke="#566d7b" />
</g>

<g class="edge" id="lane0_edge28">
<title>f5672-&gt;saved</title>
<path d="M589.2138,-323.6906C586.1692,-320.0722 583.4878,-316.0481 581.75,-311.75 571.3996,-286.1504 572.5993,-274.0302 585.75,-249.75 589.9834,-241.9339 596.8867,-245.1905 601.75,-237.75 626.4083,-200.0246 634.2382,-147.3198 636.6873,-114.5491" fill="none" stroke="#84929a" stroke-dasharray="5,2" />
<polygon fill="#84929a" points="638.97,-114.5083 637.1324,-107.8713 634.4301,-114.2056 638.97,-114.5083" stroke="#84929a" />
<text fill="#000000" font-family="sans-serif" font-size="9.00" text-anchor="middle" x="652.75" y="-217.55">BF16 gate 저장</text>
</g>

<g class="edge" id="lane0_edge21">
<title>f5673-&gt;f5674</title>
<path d="M460.75,-262.448C460.75,-256.8988 460.75,-250.7047 460.75,-244.7932" fill="none" stroke="#566d7b" />
<polygon fill="#566d7b" points="463.0251,-244.5391 460.75,-238.0391 458.4751,-244.5391 463.0251,-244.5391" stroke="#566d7b" />
</g>

<g class="edge" id="lane0_edge22">
<title>f5674-&gt;f5675</title>
<path d="M460.75,-201.448C460.75,-195.8988 460.75,-189.7047 460.75,-183.7932" fill="none" stroke="#566d7b" />
<polygon fill="#566d7b" points="463.0251,-183.5391 460.75,-177.0391 458.4751,-183.5391 463.0251,-183.5391" stroke="#566d7b" />
</g>

<g class="node" id="lane0_node26">
<title>y</title>
<path d="M514.25,-99.1023C514.25,-100.9081 490.2704,-102.375 460.75,-102.375 431.2296,-102.375 407.25,-100.9081 407.25,-99.1023 407.25,-99.1023 407.25,-69.6477 407.25,-69.6477 407.25,-67.8419 431.2296,-66.375 460.75,-66.375 490.2704,-66.375 514.25,-67.8419 514.25,-69.6477 514.25,-69.6477 514.25,-99.1023 514.25,-99.1023" fill="#fff7df" stroke="#b78b43" />
<path d="M514.25,-99.1023C514.25,-97.2964 490.2704,-95.8295 460.75,-95.8295 431.2296,-95.8295 407.25,-97.2964 407.25,-99.1023" fill="none" stroke="#b78b43" />
<text fill="#000000" font-family="sans-serif" font-size="11.00" text-anchor="middle" x="460.75" y="-81.575">y [M,128] · HBM</text>
</g>

<g class="edge" id="lane0_edge29">
<title>f5675-&gt;y</title>
<path d="M460.75,-140.7459C460.75,-131.224 460.75,-119.3915 460.75,-109.0292" fill="none" stroke="#566d7b" />
<polygon fill="#566d7b" points="463.0251,-108.9711 460.75,-102.4711 458.4751,-108.9711 463.0251,-108.9711" stroke="#566d7b" />
</g>

<g class="node" id="lane0_node27">
<title>note</title>
<polygon fill="#ffffff" points="550.25,-36 365.25,-36 365.25,0 556.25,0 556.25,-30 550.25,-36" stroke="#b6c4cf" />
<polyline fill="none" points="550.25,-36 550.25,-30 " stroke="#b6c4cf" />
<polyline fill="none" points="556.25,-30 550.25,-30 " stroke="#b6c4cf" />
<text fill="#000000" font-family="sans-serif" font-size="11.00" text-anchor="middle" x="460.75" y="-21.2">glogit HBM buffer 제거</text>
<text fill="#000000" font-family="sans-serif" font-size="11.00" text-anchor="middle" x="460.75" y="-9.2">중간 proj의 fwd HBM 재읽기 제거</text>
</g>

</g>
</svg><svg height="1807.21" viewBox="0.00 0.00 841.00 1807.21" width="841.0" x="881.0" y="0">
<g class="graph" id="lane1_graph0" transform="scale(1 1) rotate(0) translate(18 1789.2083)">
<title>G</title>
<polygon fill="#ffffff" points="-18,18 -18,-1789.2083 823,-1789.2083 823,18 -18,18" stroke="transparent" />
<text fill="#000000" font-family="sans-serif" font-size="16.00" text-anchor="middle" x="402.5" y="-1754.4083">최신 H100 · Forward · 동일 Triton 융합 · L768 · BF16 B1 D=h=128</text>
<text fill="#000000" font-family="sans-serif" font-size="16.00" text-anchor="middle" x="402.5" y="-1736.4083">기준: 8c7d8b39 · 동일 융합 / 저장값 · H100 경로는 개발 checkout의 선택 옵션</text>
<text fill="#000000" font-family="sans-serif" font-size="16.00" text-anchor="middle" x="402.5" y="-1718.4083">전체 학습 FWD+BWD: 6.286 → 6.119 ms (1.027×) · compile + CUDA graph · dropout=0.25/RNG 포함</text>
<text fill="#000000" font-family="sans-serif" font-size="16.00" text-anchor="middle" x="402.5" y="-1700.4083">청색 Triton / 녹색 CuTe TMA+WGMMA / 보라 cuBLAS / 노랑 HBM · 색상 외곽선 = 커널 경계</text>
<text fill="#000000" font-family="sans-serif" font-size="16.00" text-anchor="middle" x="402.5" y="-1682.4083">아래 config는 실측 후보이며 shape 하드코딩이나 전체 cache 완료를 뜻하지 않음</text>
<g class="cluster" id="lane1_clust1">
<title>cluster_ln</title>
<path d="M99.25,-1451.125C99.25,-1451.125 327.25,-1451.125 327.25,-1451.125 333.25,-1451.125 339.25,-1457.125 339.25,-1463.125 339.25,-1463.125 339.25,-1592.125 339.25,-1592.125 339.25,-1598.125 333.25,-1604.125 327.25,-1604.125 327.25,-1604.125 99.25,-1604.125 99.25,-1604.125 93.25,-1604.125 87.25,-1598.125 87.25,-1592.125 87.25,-1592.125 87.25,-1463.125 87.25,-1463.125 87.25,-1457.125 93.25,-1451.125 99.25,-1451.125" fill="#eef5ff" stroke="#2868ba" stroke-width="2" />
<text fill="#000000" font-family="monospace" font-size="11.00" text-anchor="middle" x="213.25" y="-1591.325">F1 · layer_norm_fwd_fused</text>
<text fill="#000000" font-family="monospace" font-size="11.00" text-anchor="middle" x="213.25" y="-1579.325">Triton · 1 kernel</text>
</g>
<g class="cluster" id="lane1_clust2">
<title>cluster_front</title>
<path d="M74.25,-1102.125C74.25,-1102.125 358.25,-1102.125 358.25,-1102.125 364.25,-1102.125 370.25,-1108.125 370.25,-1114.125 370.25,-1114.125 370.25,-1361.125 370.25,-1361.125 370.25,-1367.125 364.25,-1373.125 358.25,-1373.125 358.25,-1373.125 74.25,-1373.125 74.25,-1373.125 68.25,-1373.125 62.25,-1367.125 62.25,-1361.125 62.25,-1361.125 62.25,-1114.125 62.25,-1114.125 62.25,-1108.125 68.25,-1102.125 74.25,-1102.125" fill="#eaf8f2" stroke="#168269" stroke-width="2" />
<text fill="#000000" font-family="monospace" font-size="11.00" text-anchor="middle" x="216.25" y="-1360.325">F2 · FrontSingleWarpgroupSm90</text>
<text fill="#000000" font-family="monospace" font-size="11.00" text-anchor="middle" x="216.25" y="-1348.325">CuTe · 1 kernel</text>
<text fill="#000000" font-family="monospace" font-size="11.00" text-anchor="middle" x="216.25" y="-1336.325">Triton 876.068 → CuTe 737.801 µs · 1.187×</text>
<text fill="#000000" font-family="monospace" font-size="11.00" text-anchor="middle" x="216.25" y="-1324.325">M128 / BK64 / BH32 / warps4 / stages2</text>
<text fill="#000000" font-family="monospace" font-size="11.00" text-anchor="middle" x="216.25" y="-1312.325">A 재사용 · 다음 B TMA ↔ 현재 epilogue</text>
<text fill="#000000" font-family="monospace" font-size="11.00" text-anchor="middle" x="216.25" y="-1300.325">output TMA ↔ 다음 GEMM · BF16 packed shuffle</text>
</g>
<g class="cluster" id="lane1_clust4">
<title>cluster_co</title>
<path d="M90.25,-921.375C90.25,-921.375 264.25,-921.375 264.25,-921.375 270.25,-921.375 276.25,-927.375 276.25,-933.375 276.25,-933.375 276.25,-1001.375 276.25,-1001.375 276.25,-1007.375 270.25,-1013.375 264.25,-1013.375 264.25,-1013.375 90.25,-1013.375 90.25,-1013.375 84.25,-1013.375 78.25,-1007.375 78.25,-1001.375 78.25,-1001.375 78.25,-933.375 78.25,-933.375 78.25,-927.375 84.25,-921.375 90.25,-921.375" fill="#f7f0ff" stroke="#8655ad" stroke-width="2" />
<text fill="#000000" font-family="monospace" font-size="11.00" text-anchor="middle" x="177.25" y="-1000.575">F3a · cuBLAS bmm</text>
<text fill="#000000" font-family="monospace" font-size="11.00" text-anchor="middle" x="177.25" y="-988.575">별도 GEMM 호출</text>
</g>
<g class="cluster" id="lane1_clust5">
<title>cluster_ci</title>
<path d="M296.25,-921.375C296.25,-921.375 470.25,-921.375 470.25,-921.375 476.25,-921.375 482.25,-927.375 482.25,-933.375 482.25,-933.375 482.25,-1001.375 482.25,-1001.375 482.25,-1007.375 476.25,-1013.375 470.25,-1013.375 470.25,-1013.375 296.25,-1013.375 296.25,-1013.375 290.25,-1013.375 284.25,-1007.375 284.25,-1001.375 284.25,-1001.375 284.25,-933.375 284.25,-933.375 284.25,-927.375 290.25,-921.375 296.25,-921.375" fill="#f7f0ff" stroke="#8655ad" stroke-width="2" />
<text fill="#000000" font-family="monospace" font-size="11.00" text-anchor="middle" x="383.25" y="-1000.575">F3b · cuBLAS bmm</text>
<text fill="#000000" font-family="monospace" font-size="11.00" text-anchor="middle" x="383.25" y="-988.575">별도 GEMM 호출</text>
</g>
<g class="cluster" id="lane1_clust6">
<title>cluster_lo</title>
<path d="M187.25,-593.125C187.25,-593.125 371.25,-593.125 371.25,-593.125 377.25,-593.125 383.25,-599.125 383.25,-605.125 383.25,-605.125 383.25,-795.125 383.25,-795.125 383.25,-801.125 377.25,-807.125 371.25,-807.125 371.25,-807.125 187.25,-807.125 187.25,-807.125 181.25,-807.125 175.25,-801.125 175.25,-795.125 175.25,-795.125 175.25,-605.125 175.25,-605.125 175.25,-599.125 181.25,-593.125 187.25,-593.125" fill="#eef5ff" stroke="#2868ba" stroke-width="2" />
<text fill="#000000" font-family="monospace" font-size="11.00" text-anchor="middle" x="279.25" y="-794.325">F4 · _ln_mat_kernel</text>
<text fill="#000000" font-family="monospace" font-size="11.00" text-anchor="middle" x="279.25" y="-782.325">Triton · 1 kernel</text>
</g>
<g class="cluster" id="lane1_clust7">
<title>cluster_f567</title>
<path d="M373.25,-162.75C373.25,-162.75 705.25,-162.75 705.25,-162.75 711.25,-162.75 717.25,-168.75 717.25,-174.75 717.25,-174.75 717.25,-564.125 717.25,-564.125 717.25,-570.125 711.25,-576.125 705.25,-576.125 705.25,-576.125 373.25,-576.125 373.25,-576.125 367.25,-576.125 361.25,-570.125 361.25,-564.125 361.25,-564.125 361.25,-174.75 361.25,-174.75 361.25,-168.75 367.25,-162.75 373.25,-162.75" fill="#eaf8f2" stroke="#168269" stroke-width="2" />
<text fill="#000000" font-family="monospace" font-size="11.00" text-anchor="middle" x="539.25" y="-563.325">F5 + F6 + F7 · ParityF567Sm90</text>
<text fill="#000000" font-family="monospace" font-size="11.00" text-anchor="middle" x="539.25" y="-551.325">CuTe TMA + WGMMA · 1 kernel</text>
<text fill="#000000" font-family="monospace" font-size="11.00" text-anchor="middle" x="539.25" y="-539.325">Triton 409.107 → CuTe 355.706 µs · 1.150×</text>
<text fill="#000000" font-family="monospace" font-size="11.00" text-anchor="middle" x="539.25" y="-527.325">M64 / N64 / K64 / GROUP_M1 / warps4 / stages2</text>
<text fill="#000000" font-family="monospace" font-size="11.00" text-anchor="middle" x="539.25" y="-515.325">초기 projection 입력 L2 prefetch ↔ gate GEMM</text>
<text fill="#000000" font-family="monospace" font-size="11.00" text-anchor="middle" x="539.25" y="-503.325">projection TMA ↔ FP32 sigmoid(BF16(logit))</text>
<text fill="#000000" font-family="monospace" font-size="11.00" text-anchor="middle" x="539.25" y="-491.325">P/G/Y와 분리된 네 번째 retired tile에 dropout TMA</text>
<text fill="#000000" font-family="monospace" font-size="11.00" text-anchor="middle" x="539.25" y="-479.325">공간·정렬 부족 시 기존 읽기 · 추가 shared/HBM 없음</text>
</g>

<g class="node" id="lane1_node1">
<title>pair</title>
<ellipse cx="213.25" cy="-1649.1666" fill="#f5f7f8" rx="27" ry="18" stroke="#88989d" />
<text fill="#000000" font-family="sans-serif" font-size="11.00" text-anchor="middle" x="213.25" y="-1646.3666">pair</text>
</g>

<g class="node" id="lane1_node4">
<title>ln0</title>
<path d="M314.75,-1560.125C314.75,-1560.125 111.75,-1560.125 111.75,-1560.125 105.75,-1560.125 99.75,-1554.125 99.75,-1548.125 99.75,-1548.125 99.75,-1536.125 99.75,-1536.125 99.75,-1530.125 105.75,-1524.125 111.75,-1524.125 111.75,-1524.125 314.75,-1524.125 314.75,-1524.125 320.75,-1524.125 326.75,-1530.125 326.75,-1536.125 326.75,-1536.125 326.75,-1548.125 326.75,-1548.125 326.75,-1554.125 320.75,-1560.125 314.75,-1560.125" fill="#ffffff" stroke="#2868ba" />
<text fill="#000000" font-family="sans-serif" font-size="11.00" text-anchor="middle" x="213.25" y="-1539.325">μ = mean(pair), rstd = rsqrt(var + ε)</text>
</g>

<g class="edge" id="lane1_edge2">
<title>pair-&gt;ln0</title>
<path d="M213.25,-1631.0085C213.25,-1625.1402 213.25,-1618.2454 213.25,-1610.9351" fill="none" stroke="#566d7b" />
<polygon fill="#566d7b" points="215.5251,-1610.6223 213.25,-1604.1223 210.9751,-1610.6223 215.5251,-1610.6223" stroke="#566d7b" />
</g>

<g class="node" id="lane1_node24">
<title>f5675</title>
<path d="M494.25,-210.75C494.25,-210.75 434.25,-210.75 434.25,-210.75 428.25,-210.75 422.25,-204.75 422.25,-198.75 422.25,-198.75 422.25,-186.75 422.25,-186.75 422.25,-180.75 428.25,-174.75 434.25,-174.75 434.25,-174.75 494.25,-174.75 494.25,-174.75 500.25,-174.75 506.25,-180.75 506.25,-186.75 506.25,-186.75 506.25,-198.75 506.25,-198.75 506.25,-204.75 500.25,-210.75 494.25,-210.75" fill="#ffffff" stroke="#168269" />
<text fill="#000000" font-family="sans-serif" font-size="11.00" text-anchor="middle" x="464.25" y="-189.95">y = pair + v</text>
</g>

<g class="edge" id="lane1_edge26">
<title>pair-&gt;f5675</title>
<path d="M230.4426,-1635.0199C235.5964,-1631.3441 241.432,-1627.6989 247.25,-1625.125 286.7945,-1607.6305 311.2474,-1634.2691 342.25,-1604.125 356.992,-1589.7913 425.9728,-1264.705 432.25,-1245.125 453.3977,-1179.1599 460.4132,-1162.5707 494.25,-1102.125 517.3862,-1060.7948 533.2127,-1056.2933 553.25,-1013.375 558.6071,-1001.9005 679.4252,-588.4693 682.25,-576.125 686.831,-556.1062 710.5778,-414.218 712.25,-393.75 713.5528,-377.8031 713.4847,-373.7023 712.25,-357.75 708.0151,-303.0378 731.4447,-275.152 693.25,-235.75 668.9184,-210.6493 573.0568,-199.8415 513.3435,-195.4685" fill="none" stroke="#84929a" stroke-dasharray="5,2" />
<polygon fill="#84929a" points="513.2513,-193.1813 506.6067,-194.9911 512.9296,-197.7199 513.2513,-193.1813" stroke="#84929a" />
<text fill="#000000" font-family="sans-serif" font-size="9.00" text-anchor="middle" x="604.25" y="-906.175">residual</text>
</g>

<g class="node" id="lane1_node2">
<title>mask</title>
<ellipse cx="501.25" cy="-1649.1666" fill="#f5f7f8" rx="44.6985" ry="18" stroke="#88989d" />
<text fill="#000000" font-family="sans-serif" font-size="11.00" text-anchor="middle" x="501.25" y="-1646.3666">pair mask</text>
</g>

<g class="node" id="lane1_node9">
<title>front2</title>
<path d="M305.75,-1150.125C305.75,-1150.125 120.75,-1150.125 120.75,-1150.125 114.75,-1150.125 108.75,-1144.125 108.75,-1138.125 108.75,-1138.125 108.75,-1126.125 108.75,-1126.125 108.75,-1120.125 114.75,-1114.125 120.75,-1114.125 120.75,-1114.125 305.75,-1114.125 305.75,-1114.125 311.75,-1114.125 317.75,-1120.125 317.75,-1126.125 317.75,-1126.125 317.75,-1138.125 317.75,-1138.125 317.75,-1144.125 311.75,-1150.125 305.75,-1150.125" fill="#ffffff" stroke="#168269" />
<text fill="#000000" font-family="sans-serif" font-size="11.00" text-anchor="middle" x="213.25" y="-1135.325">left = BF16(pL × σ(gL)) × mask</text>
<text fill="#000000" font-family="sans-serif" font-size="11.00" text-anchor="middle" x="213.25" y="-1123.325">right = BF16(pR × σ(gR)) × mask</text>
</g>

<g class="edge" id="lane1_edge7">
<title>mask-&gt;front2</title>
<path d="M505.8222,-1631.1257C520.8947,-1566.992 562.1448,-1347.6986 454.25,-1232.125 414.4494,-1189.4918 397.0891,-1184.5534 343.25,-1162.125 334.2171,-1158.3621 324.6253,-1155.0241 314.9049,-1152.0733" fill="none" stroke="#84929a" stroke-dasharray="5,2" />
<polygon fill="#84929a" points="315.3812,-1149.8421 308.5033,-1150.1896 314.0967,-1154.207 315.3812,-1149.8421" stroke="#84929a" />
</g>

<g class="node" id="lane1_node3">
<title>ds</title>
<ellipse cx="348.25" cy="-1649.1666" fill="#f5f7f8" rx="94.0904" ry="24.0833" stroke="#88989d" />
<text fill="#000000" font-family="sans-serif" font-size="11.00" text-anchor="middle" x="348.25" y="-1652.3666">dropout scale</text>
<text fill="#000000" font-family="sans-serif" font-size="11.00" text-anchor="middle" x="348.25" y="-1640.3666">난수/scale 생성은 별도</text>
</g>

<g class="node" id="lane1_node23">
<title>f5674</title>
<path d="M523.25,-271.75C523.25,-271.75 405.25,-271.75 405.25,-271.75 399.25,-271.75 393.25,-265.75 393.25,-259.75 393.25,-259.75 393.25,-247.75 393.25,-247.75 393.25,-241.75 399.25,-235.75 405.25,-235.75 405.25,-235.75 523.25,-235.75 523.25,-235.75 529.25,-235.75 535.25,-241.75 535.25,-247.75 535.25,-247.75 535.25,-259.75 535.25,-259.75 535.25,-265.75 529.25,-271.75 523.25,-271.75" fill="#ffffff" stroke="#168269" />
<text fill="#000000" font-family="sans-serif" font-size="11.00" text-anchor="middle" x="464.25" y="-250.95">v = v × dropout_scale</text>
</g>

<g class="edge" id="lane1_edge25">
<title>ds-&gt;f5674</title>
<path d="M361.0164,-1625.2387C364.3004,-1618.524 367.6397,-1611.1393 370.25,-1604.125 407.2852,-1504.6069 408.7629,-1476.9026 431.25,-1373.125 444.7118,-1310.9988 433.1087,-1291.7123 455.25,-1232.125 494.801,-1125.6842 542.3568,-1117.6752 587.25,-1013.375 666.9684,-828.1657 664.9349,-773.0547 708.25,-576.125 725.8961,-495.8979 731.5611,-475.6221 738.25,-393.75 739.5528,-377.8031 747.3372,-370.919 738.25,-357.75 715.2129,-324.3653 614.5904,-292.2248 541.9593,-272.7281" fill="none" stroke="#84929a" stroke-dasharray="5,2" />
<polygon fill="#84929a" points="542.329,-270.4723 535.4624,-270.9977 541.1579,-274.8691 542.329,-270.4723" stroke="#84929a" />
</g>

<g class="node" id="lane1_node5">
<title>ln1</title>
<path d="M309.75,-1499.125C309.75,-1499.125 116.75,-1499.125 116.75,-1499.125 110.75,-1499.125 104.75,-1493.125 104.75,-1487.125 104.75,-1487.125 104.75,-1475.125 104.75,-1475.125 104.75,-1469.125 110.75,-1463.125 116.75,-1463.125 116.75,-1463.125 309.75,-1463.125 309.75,-1463.125 315.75,-1463.125 321.75,-1469.125 321.75,-1475.125 321.75,-1475.125 321.75,-1487.125 321.75,-1487.125 321.75,-1493.125 315.75,-1499.125 309.75,-1499.125" fill="#ffffff" stroke="#2868ba" />
<text fill="#000000" font-family="sans-serif" font-size="11.00" text-anchor="middle" x="213.25" y="-1478.325">x_n = (pair − μ) × rstd × γin + βin</text>
</g>

<g class="edge" id="lane1_edge1">
<title>ln0-&gt;ln1</title>
<path d="M213.25,-1523.823C213.25,-1518.2738 213.25,-1512.0797 213.25,-1506.1682" fill="none" stroke="#566d7b" />
<polygon fill="#566d7b" points="215.5251,-1505.9141 213.25,-1499.4141 210.9751,-1505.9141 215.5251,-1505.9141" stroke="#566d7b" />
</g>

<g class="node" id="lane1_node6">
<title>xn</title>
<path d="M273.25,-1426.8523C273.25,-1428.6581 246.357,-1430.125 213.25,-1430.125 180.143,-1430.125 153.25,-1428.6581 153.25,-1426.8523 153.25,-1426.8523 153.25,-1397.3977 153.25,-1397.3977 153.25,-1395.5919 180.143,-1394.125 213.25,-1394.125 246.357,-1394.125 273.25,-1395.5919 273.25,-1397.3977 273.25,-1397.3977 273.25,-1426.8523 273.25,-1426.8523" fill="#fff7df" stroke="#b78b43" />
<path d="M273.25,-1426.8523C273.25,-1425.0464 246.357,-1423.5795 213.25,-1423.5795 180.143,-1423.5795 153.25,-1425.0464 153.25,-1426.8523" fill="none" stroke="#b78b43" />
<text fill="#000000" font-family="sans-serif" font-size="11.00" text-anchor="middle" x="213.25" y="-1409.325">x_n [M,128] · HBM</text>
</g>

<g class="edge" id="lane1_edge3">
<title>ln1-&gt;xn</title>
<path d="M213.25,-1462.9961C213.25,-1455.0565 213.25,-1445.611 213.25,-1437.0269" fill="none" stroke="#566d7b" />
<polygon fill="#566d7b" points="215.5251,-1436.8724 213.25,-1430.3724 210.9751,-1436.8725 215.5251,-1436.8724" stroke="#566d7b" />
</g>

<g class="node" id="lane1_node7">
<title>front0</title>
<path d="M321.25,-1281.125C321.25,-1281.125 105.25,-1281.125 105.25,-1281.125 99.25,-1281.125 93.25,-1275.125 93.25,-1269.125 93.25,-1269.125 93.25,-1257.125 93.25,-1257.125 93.25,-1251.125 99.25,-1245.125 105.25,-1245.125 105.25,-1245.125 321.25,-1245.125 321.25,-1245.125 327.25,-1245.125 333.25,-1251.125 333.25,-1257.125 333.25,-1257.125 333.25,-1269.125 333.25,-1269.125 333.25,-1275.125 327.25,-1281.125 321.25,-1281.125" fill="#ffffff" stroke="#168269" />
<text fill="#000000" font-family="sans-serif" font-size="11.00" text-anchor="middle" x="213.25" y="-1266.325">4 projections: pL=x_n·WL, gL=x_n·WLg</text>
<text fill="#000000" font-family="sans-serif" font-size="11.00" text-anchor="middle" x="213.25" y="-1254.325">pR=x_n·WR, gR=x_n·WRg</text>
</g>

<g class="edge" id="lane1_edge6">
<title>xn-&gt;front0</title>
<path d="M213.25,-1393.8547C213.25,-1389.6849 213.25,-1384.9533 213.25,-1379.8235" fill="none" stroke="#566d7b" />
<polygon fill="#566d7b" points="215.5251,-1379.6249 213.25,-1373.1249 210.9751,-1379.625 215.5251,-1379.6249" stroke="#566d7b" />
</g>

<g class="node" id="lane1_node20">
<title>f5671</title>
<path d="M663.25,-460.125C663.25,-460.125 565.25,-460.125 565.25,-460.125 559.25,-460.125 553.25,-454.125 553.25,-448.125 553.25,-448.125 553.25,-436.125 553.25,-436.125 553.25,-430.125 559.25,-424.125 565.25,-424.125 565.25,-424.125 663.25,-424.125 663.25,-424.125 669.25,-424.125 675.25,-430.125 675.25,-436.125 675.25,-436.125 675.25,-448.125 675.25,-448.125 675.25,-454.125 669.25,-460.125 663.25,-460.125" fill="#ffffff" stroke="#168269" />
<text fill="#000000" font-family="sans-serif" font-size="11.00" text-anchor="middle" x="614.25" y="-439.325">glogit = x_n @ Wg</text>
</g>

<g class="edge" id="lane1_edge24">
<title>xn-&gt;f5671</title>
<path d="M243.0177,-1394.08C252.6611,-1389.042 263.6185,-1384.1293 274.25,-1381.125 295.4899,-1375.1228 357.9407,-1389.0242 373.25,-1373.125 394.849,-1350.6937 364.5668,-1116.4034 385.25,-1093.125 407.3804,-1068.2178 437.658,-1106.5004 459.25,-1081.125 472.715,-1065.3006 465.2711,-1054.2612 459.25,-1034.375 457.2841,-1027.8819 447.0379,-1026.6932 451.25,-1021.375 460.8883,-1009.2057 475.6117,-1025.5443 485.25,-1013.375 510.6367,-981.3217 512.4961,-951.8635 485.25,-921.375 464.09,-897.6969 435.41,-937.0531 414.25,-913.375 407.4128,-905.7241 418.5721,-901.2802 421.25,-891.375 428.5864,-864.2381 437.0099,-851.4029 421.25,-828.125 413.1991,-816.2336 399.3009,-828.0164 391.25,-816.125 387.6371,-810.7886 388.1497,-589.7747 391.25,-584.125 425.1087,-522.4244 498.4144,-483.692 551.7628,-462.5498" fill="none" stroke="#84929a" stroke-dasharray="5,2" />
<polygon fill="#84929a" points="552.6074,-464.6624 557.8386,-460.1834 550.9561,-460.4226 552.6074,-464.6624" stroke="#84929a" />
<text fill="#000000" font-family="sans-serif" font-size="9.00" text-anchor="middle" x="527.25" y="-949.175">x_n 재사용</text>
</g>

<g class="node" id="lane1_node8">
<title>front1</title>
<path d="M243.25,-1220.125C243.25,-1220.125 183.25,-1220.125 183.25,-1220.125 177.25,-1220.125 171.25,-1214.125 171.25,-1208.125 171.25,-1208.125 171.25,-1196.125 171.25,-1196.125 171.25,-1190.125 177.25,-1184.125 183.25,-1184.125 183.25,-1184.125 243.25,-1184.125 243.25,-1184.125 249.25,-1184.125 255.25,-1190.125 255.25,-1196.125 255.25,-1196.125 255.25,-1208.125 255.25,-1208.125 255.25,-1214.125 249.25,-1220.125 243.25,-1220.125" fill="#ffffff" stroke="#168269" />
<text fill="#000000" font-family="sans-serif" font-size="11.00" text-anchor="middle" x="213.25" y="-1199.325">σ(gL), σ(gR)</text>
</g>

<g class="edge" id="lane1_edge4">
<title>front0-&gt;front1</title>
<path d="M213.25,-1244.823C213.25,-1239.2738 213.25,-1233.0797 213.25,-1227.1682" fill="none" stroke="#566d7b" />
<polygon fill="#566d7b" points="215.5251,-1226.9141 213.25,-1220.4141 210.9751,-1226.9141 215.5251,-1226.9141" stroke="#566d7b" />
</g>

<g class="node" id="lane1_node11">
<title>pre</title>
<path d="M452.25,-1076.7733C452.25,-1079.1059 419.9784,-1081.0007 380.25,-1081.0007 340.5216,-1081.0007 308.25,-1079.1059 308.25,-1076.7733 308.25,-1076.7733 308.25,-1038.7267 308.25,-1038.7267 308.25,-1036.3941 340.5216,-1034.4993 380.25,-1034.4993 419.9784,-1034.4993 452.25,-1036.3941 452.25,-1038.7267 452.25,-1038.7267 452.25,-1076.7733 452.25,-1076.7733" fill="#fff7df" stroke="#b78b43" />
<path d="M452.25,-1076.7733C452.25,-1074.4407 419.9784,-1072.5459 380.25,-1072.5459 340.5216,-1072.5459 308.25,-1074.4407 308.25,-1076.7733" fill="none" stroke="#b78b43" />
<text fill="#000000" font-family="sans-serif" font-size="11.00" text-anchor="middle" x="380.25" y="-1060.95">raw pL,gL,pR,gR · HBM</text>
<text fill="#000000" font-family="sans-serif" font-size="11.00" text-anchor="middle" x="380.25" y="-1048.95">backward용 저장</text>
</g>

<g class="edge" id="lane1_edge9">
<title>front0-&gt;pre</title>
<path d="M235.2467,-1244.854C243.8849,-1237.4157 253.7473,-1228.5888 262.25,-1220.125 291.7046,-1190.8054 304.3521,-1186.6118 324.25,-1150.125 336.8478,-1127.0243 326.2694,-1115.416 340.25,-1093.125 341.7462,-1090.7394 343.4505,-1088.422 345.2924,-1086.19" fill="none" stroke="#84929a" stroke-dasharray="5,2" />
<polygon fill="#84929a" points="347.1674,-1087.5063 349.8068,-1081.1455 343.7769,-1084.472 347.1674,-1087.5063" stroke="#84929a" />
<text fill="#000000" font-family="sans-serif" font-size="9.00" text-anchor="middle" x="328.75" y="-1164.925">store</text>
</g>

<g class="edge" id="lane1_edge5">
<title>front1-&gt;front2</title>
<path d="M213.25,-1184.0983C213.25,-1175.8345 213.25,-1165.905 213.25,-1156.9491" fill="none" stroke="#566d7b" />
<polygon fill="#566d7b" points="215.5251,-1156.8339 213.25,-1150.3339 210.9751,-1156.834 215.5251,-1156.8339" stroke="#566d7b" />
</g>

<g class="node" id="lane1_node10">
<title>lr</title>
<path d="M294.25,-1072.4773C294.25,-1074.2831 257.9445,-1075.75 213.25,-1075.75 168.5555,-1075.75 132.25,-1074.2831 132.25,-1072.4773 132.25,-1072.4773 132.25,-1043.0227 132.25,-1043.0227 132.25,-1041.2169 168.5555,-1039.75 213.25,-1039.75 257.9445,-1039.75 294.25,-1041.2169 294.25,-1043.0227 294.25,-1043.0227 294.25,-1072.4773 294.25,-1072.4773" fill="#fff7df" stroke="#b78b43" />
<path d="M294.25,-1072.4773C294.25,-1070.6714 257.9445,-1069.2045 213.25,-1069.2045 168.5555,-1069.2045 132.25,-1070.6714 132.25,-1072.4773" fill="none" stroke="#b78b43" />
<text fill="#000000" font-family="sans-serif" font-size="11.00" text-anchor="middle" x="213.25" y="-1054.95">left / right [256,L,L] · HBM</text>
</g>

<g class="edge" id="lane1_edge8">
<title>front2-&gt;lr</title>
<path d="M213.25,-1114.1209C213.25,-1104.599 213.25,-1092.7665 213.25,-1082.4042" fill="none" stroke="#566d7b" />
<polygon fill="#566d7b" points="215.5251,-1082.3461 213.25,-1075.8461 210.9751,-1082.3461 215.5251,-1082.3461" stroke="#566d7b" />
</g>

<g class="node" id="lane1_node12">
<title>co0</title>
<path d="M251.75,-969.375C251.75,-969.375 102.75,-969.375 102.75,-969.375 96.75,-969.375 90.75,-963.375 90.75,-957.375 90.75,-957.375 90.75,-945.375 90.75,-945.375 90.75,-939.375 96.75,-933.375 102.75,-933.375 102.75,-933.375 251.75,-933.375 251.75,-933.375 257.75,-933.375 263.75,-939.375 263.75,-945.375 263.75,-945.375 263.75,-957.375 263.75,-957.375 263.75,-963.375 257.75,-969.375 251.75,-969.375" fill="#ffffff" stroke="#8655ad" />
<text fill="#000000" font-family="sans-serif" font-size="11.00" text-anchor="middle" x="177.25" y="-948.575">tri[:h] = left[:h] @ right[:h]ᵀ</text>
</g>

<g class="edge" id="lane1_edge10">
<title>lr-&gt;co0</title>
<path d="M207.1431,-1039.7049C205.1559,-1033.833 202.8186,-1026.9267 200.3411,-1019.6061" fill="none" stroke="#566d7b" />
<polygon fill="#566d7b" points="202.4704,-1018.8006 198.2317,-1013.3729 198.1605,-1020.2592 202.4704,-1018.8006" stroke="#566d7b" />
</g>

<g class="node" id="lane1_node13">
<title>ci0</title>
<path d="M457.75,-969.375C457.75,-969.375 308.75,-969.375 308.75,-969.375 302.75,-969.375 296.75,-963.375 296.75,-957.375 296.75,-957.375 296.75,-945.375 296.75,-945.375 296.75,-939.375 302.75,-933.375 308.75,-933.375 308.75,-933.375 457.75,-933.375 457.75,-933.375 463.75,-933.375 469.75,-939.375 469.75,-945.375 469.75,-945.375 469.75,-957.375 469.75,-957.375 469.75,-963.375 463.75,-969.375 457.75,-969.375" fill="#ffffff" stroke="#8655ad" />
<text fill="#000000" font-family="sans-serif" font-size="11.00" text-anchor="middle" x="383.25" y="-948.575">tri[h:] = left[h:]ᵀ @ right[h:]</text>
</g>

<g class="edge" id="lane1_edge11">
<title>lr-&gt;ci0</title>
<path d="M242.0882,-1039.7049C252.6169,-1033.1167 265.2266,-1025.2264 278.5175,-1016.9098" fill="none" stroke="#566d7b" />
<polygon fill="#566d7b" points="279.9479,-1018.6985 284.2513,-1013.322 277.5343,-1014.8414 279.9479,-1018.6985" stroke="#566d7b" />
</g>

<g class="node" id="lane1_node14">
<title>tri</title>
<path d="M414.25,-885.7277C414.25,-888.913 353.7408,-891.5005 279.25,-891.5005 204.7592,-891.5005 144.25,-888.913 144.25,-885.7277 144.25,-885.7277 144.25,-833.7723 144.25,-833.7723 144.25,-830.587 204.7592,-827.9995 279.25,-827.9995 353.7408,-827.9995 414.25,-830.587 414.25,-833.7723 414.25,-833.7723 414.25,-885.7277 414.25,-885.7277" fill="#fff7df" stroke="#b78b43" />
<path d="M414.25,-885.7277C414.25,-882.5423 353.7408,-879.9549 279.25,-879.9549 204.7592,-879.9549 144.25,-882.5423 144.25,-885.7277" fill="none" stroke="#b78b43" />
<text fill="#000000" font-family="sans-serif" font-size="11.00" text-anchor="middle" x="279.25" y="-868.95">tri [256,L,L] · HBM</text>
<text fill="#000000" font-family="sans-serif" font-size="11.00" text-anchor="middle" x="279.25" y="-856.95">두 GEMM이 최종 buffer의 다른 slice에 직접 기록</text>
<text fill="#000000" font-family="sans-serif" font-size="11.00" text-anchor="middle" x="279.25" y="-844.95">cat kernel 없음</text>
</g>

<g class="edge" id="lane1_edge12">
<title>co0-&gt;tri</title>
<path d="M197.4019,-933.2728C209.1914,-922.6825 224.5038,-908.9277 238.6901,-896.1843" fill="none" stroke="#566d7b" />
<polygon fill="#566d7b" points="240.5419,-897.579 243.8571,-891.5429 237.5013,-894.1941 240.5419,-897.579" stroke="#566d7b" />
</g>

<g class="edge" id="lane1_edge13">
<title>ci0-&gt;tri</title>
<path d="M362.7029,-933.2728C350.5768,-922.5896 334.7955,-908.6861 320.2248,-895.8492" fill="none" stroke="#566d7b" />
<polygon fill="#566d7b" points="321.718,-894.1327 315.3368,-891.5429 318.7101,-897.5468 321.718,-894.1327" stroke="#566d7b" />
</g>

<g class="node" id="lane1_node15">
<title>lo0</title>
<path d="M325.25,-763.125C325.25,-763.125 233.25,-763.125 233.25,-763.125 227.25,-763.125 221.25,-757.125 221.25,-751.125 221.25,-751.125 221.25,-739.125 221.25,-739.125 221.25,-733.125 227.25,-727.125 233.25,-727.125 233.25,-727.125 325.25,-727.125 325.25,-727.125 331.25,-727.125 337.25,-733.125 337.25,-739.125 337.25,-739.125 337.25,-751.125 337.25,-751.125 337.25,-757.125 331.25,-763.125 325.25,-763.125" fill="#ffffff" stroke="#2868ba" />
<text fill="#000000" font-family="sans-serif" font-size="11.00" text-anchor="middle" x="279.25" y="-742.325">μout, rstdout 계산</text>
</g>

<g class="edge" id="lane1_edge16">
<title>tri-&gt;lo0</title>
<path d="M279.25,-828.1248C279.25,-823.5967 279.25,-818.7988 279.25,-813.8839" fill="none" stroke="#566d7b" />
<polygon fill="#566d7b" points="281.5251,-813.6235 279.25,-807.1235 276.9751,-813.6235 281.5251,-813.6235" stroke="#566d7b" />
</g>

<g class="node" id="lane1_node16">
<title>lo1</title>
<path d="M357.25,-702.125C357.25,-702.125 201.25,-702.125 201.25,-702.125 195.25,-702.125 189.25,-696.125 189.25,-690.125 189.25,-690.125 189.25,-678.125 189.25,-678.125 189.25,-672.125 195.25,-666.125 201.25,-666.125 201.25,-666.125 357.25,-666.125 357.25,-666.125 363.25,-666.125 369.25,-672.125 369.25,-678.125 369.25,-678.125 369.25,-690.125 369.25,-690.125 369.25,-696.125 363.25,-702.125 357.25,-702.125" fill="#ffffff" stroke="#2868ba" />
<text fill="#000000" font-family="sans-serif" font-size="11.00" text-anchor="middle" x="279.25" y="-681.325">xhat = (tri − μout) × rstdout</text>
</g>

<g class="edge" id="lane1_edge14">
<title>lo0-&gt;lo1</title>
<path d="M279.25,-726.823C279.25,-721.2738 279.25,-715.0797 279.25,-709.1682" fill="none" stroke="#566d7b" />
<polygon fill="#566d7b" points="281.5251,-708.9141 279.25,-702.4141 276.9751,-708.9141 281.5251,-708.9141" stroke="#566d7b" />
</g>

<g class="node" id="lane1_node17">
<title>lo2</title>
<path d="M358.75,-641.125C358.75,-641.125 199.75,-641.125 199.75,-641.125 193.75,-641.125 187.75,-635.125 187.75,-629.125 187.75,-629.125 187.75,-617.125 187.75,-617.125 187.75,-611.125 193.75,-605.125 199.75,-605.125 199.75,-605.125 358.75,-605.125 358.75,-605.125 364.75,-605.125 370.75,-611.125 370.75,-617.125 370.75,-617.125 370.75,-629.125 370.75,-629.125 370.75,-635.125 364.75,-641.125 358.75,-641.125" fill="#ffffff" stroke="#2868ba" />
<text fill="#000000" font-family="sans-serif" font-size="11.00" text-anchor="middle" x="279.25" y="-620.325">xn_out = xhat × γout + βout</text>
</g>

<g class="edge" id="lane1_edge15">
<title>lo1-&gt;lo2</title>
<path d="M279.25,-665.823C279.25,-660.2738 279.25,-654.0797 279.25,-648.1682" fill="none" stroke="#566d7b" />
<polygon fill="#566d7b" points="281.5251,-647.9141 279.25,-641.4141 276.9751,-647.9141 281.5251,-647.9141" stroke="#566d7b" />
</g>

<g class="node" id="lane1_node18">
<title>norm</title>
<path d="M348.75,-461.1483C348.75,-463.4809 317.599,-465.3757 279.25,-465.3757 240.901,-465.3757 209.75,-463.4809 209.75,-461.1483 209.75,-461.1483 209.75,-423.1017 209.75,-423.1017 209.75,-420.7691 240.901,-418.8743 279.25,-418.8743 317.599,-418.8743 348.75,-420.7691 348.75,-423.1017 348.75,-423.1017 348.75,-461.1483 348.75,-461.1483" fill="#fff7df" stroke="#b78b43" />
<path d="M348.75,-461.1483C348.75,-458.8157 317.599,-456.9209 279.25,-456.9209 240.901,-456.9209 209.75,-458.8157 209.75,-461.1483" fill="none" stroke="#b78b43" />
<text fill="#000000" font-family="sans-serif" font-size="11.00" text-anchor="middle" x="279.25" y="-445.325">xn_out [M,256] · HBM</text>
<text fill="#000000" font-family="sans-serif" font-size="11.00" text-anchor="middle" x="279.25" y="-433.325">μout, rstdout도 저장</text>
</g>

<g class="edge" id="lane1_edge17">
<title>lo2-&gt;norm</title>
<path d="M279.25,-605.1083C279.25,-574.0465 279.25,-510.1083 279.25,-472.2038" fill="none" stroke="#566d7b" />
<polygon fill="#566d7b" points="281.5251,-471.943 279.25,-465.443 276.9751,-471.9431 281.5251,-471.943" stroke="#566d7b" />
</g>

<g class="node" id="lane1_node19">
<title>f5670</title>
<path d="M496.75,-393.75C496.75,-393.75 385.75,-393.75 385.75,-393.75 379.75,-393.75 373.75,-387.75 373.75,-381.75 373.75,-381.75 373.75,-369.75 373.75,-369.75 373.75,-363.75 379.75,-357.75 385.75,-357.75 385.75,-357.75 496.75,-357.75 496.75,-357.75 502.75,-357.75 508.75,-363.75 508.75,-369.75 508.75,-369.75 508.75,-381.75 508.75,-381.75 508.75,-387.75 502.75,-393.75 496.75,-393.75" fill="#ffffff" stroke="#168269" />
<text fill="#000000" font-family="sans-serif" font-size="11.00" text-anchor="middle" x="441.25" y="-372.95">proj = xn_out @ Wpᵀ</text>
</g>

<g class="edge" id="lane1_edge23">
<title>norm-&gt;f5670</title>
<path d="M333.6443,-419.8384C340.5881,-416.9934 347.8254,-414.0281 355.1183,-411.0401" fill="none" stroke="#566d7b" />
<polygon fill="#566d7b" points="356.1001,-413.0964 361.2523,-408.5268 354.375,-408.8861 356.1001,-413.0964" stroke="#566d7b" />
</g>

<g class="node" id="lane1_node22">
<title>f5673</title>
<path d="M522.75,-332.75C522.75,-332.75 405.75,-332.75 405.75,-332.75 399.75,-332.75 393.75,-326.75 393.75,-320.75 393.75,-320.75 393.75,-308.75 393.75,-308.75 393.75,-302.75 399.75,-296.75 405.75,-296.75 405.75,-296.75 522.75,-296.75 522.75,-296.75 528.75,-296.75 534.75,-302.75 534.75,-308.75 534.75,-308.75 534.75,-320.75 534.75,-320.75 534.75,-326.75 528.75,-332.75 522.75,-332.75" fill="#ffffff" stroke="#168269" />
<text fill="#000000" font-family="sans-serif" font-size="11.00" text-anchor="middle" x="464.25" y="-311.95">v = BF16(proj) × gate</text>
</g>

<g class="edge" id="lane1_edge19">
<title>f5670-&gt;f5673</title>
<path d="M448.1508,-357.448C450.2886,-351.7782 452.6802,-345.435 454.9527,-339.4081" fill="none" stroke="#566d7b" />
<polygon fill="#566d7b" points="457.1895,-339.9238 457.3541,-333.0391 452.9321,-338.3185 457.1895,-339.9238" stroke="#566d7b" />
</g>

<g class="node" id="lane1_node25">
<title>saved</title>
<path d="M750.75,-137.3983C750.75,-139.7309 701.6703,-141.6257 641.25,-141.6257 580.8297,-141.6257 531.75,-139.7309 531.75,-137.3983 531.75,-137.3983 531.75,-99.3517 531.75,-99.3517 531.75,-97.0191 580.8297,-95.1243 641.25,-95.1243 701.6703,-95.1243 750.75,-97.0191 750.75,-99.3517 750.75,-99.3517 750.75,-137.3983 750.75,-137.3983" fill="#fff7df" stroke="#b78b43" />
<path d="M750.75,-137.3983C750.75,-135.0657 701.6703,-133.1709 641.25,-133.1709 580.8297,-133.1709 531.75,-135.0657 531.75,-137.3983" fill="none" stroke="#b78b43" />
<text fill="#000000" font-family="sans-serif" font-size="11.00" text-anchor="middle" x="641.25" y="-121.575">proj / gate [M,128] · HBM</text>
<text fill="#000000" font-family="sans-serif" font-size="11.00" text-anchor="middle" x="641.25" y="-109.575">backward용 store만 · fwd 재읽기 없음</text>
</g>

<g class="edge" id="lane1_edge27">
<title>f5670-&gt;saved</title>
<path d="M508.7076,-357.6839C521.365,-351.5771 533.3864,-343.473 542.25,-332.75 570.3531,-298.7515 546.0783,-276.3802 563.25,-235.75 577.0059,-203.2021 600.0656,-170.0218 617.5536,-147.2813" fill="none" stroke="#84929a" stroke-dasharray="5,2" />
<polygon fill="#84929a" points="619.4511,-148.5472 621.6445,-142.0191 615.8589,-145.7545 619.4511,-148.5472" stroke="#84929a" />
<text fill="#000000" font-family="sans-serif" font-size="9.00" text-anchor="middle" x="582.75" y="-251.55">proj 저장</text>
</g>

<g class="node" id="lane1_node21">
<title>f5672</title>
<path d="M693.25,-393.75C693.25,-393.75 535.25,-393.75 535.25,-393.75 529.25,-393.75 523.25,-387.75 523.25,-381.75 523.25,-381.75 523.25,-369.75 523.25,-369.75 523.25,-363.75 529.25,-357.75 535.25,-357.75 535.25,-357.75 693.25,-357.75 693.25,-357.75 699.25,-357.75 705.25,-363.75 705.25,-369.75 705.25,-369.75 705.25,-381.75 705.25,-381.75 705.25,-387.75 699.25,-393.75 693.25,-393.75" fill="#ffffff" stroke="#168269" />
<text fill="#000000" font-family="sans-serif" font-size="11.00" text-anchor="middle" x="614.25" y="-372.95">gate = sigmoid(BF16(glogit))</text>
</g>

<g class="edge" id="lane1_edge18">
<title>f5671-&gt;f5672</title>
<path d="M614.25,-423.9877C614.25,-416.8172 614.25,-408.4574 614.25,-400.7309" fill="none" stroke="#566d7b" />
<polygon fill="#566d7b" points="616.5251,-400.3653 614.25,-393.8653 611.9751,-400.3654 616.5251,-400.3653" stroke="#566d7b" />
</g>

<g class="edge" id="lane1_edge20">
<title>f5672-&gt;f5673</title>
<path d="M569.6512,-357.6131C552.4994,-350.6381 532.7942,-342.6247 515.0975,-335.428" fill="none" stroke="#566d7b" />
<polygon fill="#566d7b" points="515.5552,-333.1582 508.677,-332.817 513.8411,-337.373 515.5552,-333.1582" stroke="#566d7b" />
</g>

<g class="edge" id="lane1_edge28">
<title>f5672-&gt;saved</title>
<path d="M592.7138,-357.6906C589.6692,-354.0722 586.9878,-350.0481 585.25,-345.75 574.8996,-320.1504 576.0993,-308.0302 589.25,-283.75 593.4834,-275.9339 600.3867,-279.1905 605.25,-271.75 629.9083,-234.0246 637.7382,-181.3198 640.1873,-148.5491" fill="none" stroke="#84929a" stroke-dasharray="5,2" />
<polygon fill="#84929a" points="642.47,-148.5083 640.6324,-141.8713 637.9301,-148.2056 642.47,-148.5083" stroke="#84929a" />
<text fill="#000000" font-family="sans-serif" font-size="9.00" text-anchor="middle" x="656.25" y="-251.55">BF16 gate 저장</text>
</g>

<g class="edge" id="lane1_edge21">
<title>f5673-&gt;f5674</title>
<path d="M464.25,-296.448C464.25,-290.8988 464.25,-284.7047 464.25,-278.7932" fill="none" stroke="#566d7b" />
<polygon fill="#566d7b" points="466.5251,-278.5391 464.25,-272.0391 461.9751,-278.5391 466.5251,-278.5391" stroke="#566d7b" />
</g>

<g class="edge" id="lane1_edge22">
<title>f5674-&gt;f5675</title>
<path d="M464.25,-235.448C464.25,-229.8988 464.25,-223.7047 464.25,-217.7932" fill="none" stroke="#566d7b" />
<polygon fill="#566d7b" points="466.5251,-217.5391 464.25,-211.0391 461.9751,-217.5391 466.5251,-217.5391" stroke="#566d7b" />
</g>

<g class="node" id="lane1_node26">
<title>y</title>
<path d="M517.75,-133.1023C517.75,-134.9081 493.7704,-136.375 464.25,-136.375 434.7296,-136.375 410.75,-134.9081 410.75,-133.1023 410.75,-133.1023 410.75,-103.6477 410.75,-103.6477 410.75,-101.8419 434.7296,-100.375 464.25,-100.375 493.7704,-100.375 517.75,-101.8419 517.75,-103.6477 517.75,-103.6477 517.75,-133.1023 517.75,-133.1023" fill="#fff7df" stroke="#b78b43" />
<path d="M517.75,-133.1023C517.75,-131.2964 493.7704,-129.8295 464.25,-129.8295 434.7296,-129.8295 410.75,-131.2964 410.75,-133.1023" fill="none" stroke="#b78b43" />
<text fill="#000000" font-family="sans-serif" font-size="11.00" text-anchor="middle" x="464.25" y="-115.575">y [M,128] · HBM</text>
</g>

<g class="edge" id="lane1_edge29">
<title>f5675-&gt;y</title>
<path d="M464.25,-174.7459C464.25,-165.224 464.25,-153.3915 464.25,-143.0292" fill="none" stroke="#566d7b" />
<polygon fill="#566d7b" points="466.5251,-142.9711 464.25,-136.4711 461.9751,-142.9711 466.5251,-142.9711" stroke="#566d7b" />
</g>

<g class="node" id="lane1_node27">
<title>note</title>
<polygon fill="#ffffff" points="642.75,-70 279.75,-70 279.75,0 648.75,0 648.75,-64 642.75,-70" stroke="#b6c4cf" />
<polyline fill="none" points="642.75,-70 642.75,-64 " stroke="#b6c4cf" />
<polyline fill="none" points="648.75,-64 642.75,-64 " stroke="#b6c4cf" />
<text fill="#000000" font-family="sans-serif" font-size="11.00" text-anchor="middle" x="464.25" y="-56.2">F2는 목표 달성 · F567 L384 미달 / L768은15% 경계</text>
<text fill="#000000" font-family="sans-serif" font-size="11.00" text-anchor="middle" x="464.25" y="-44.2">F567: dropout LSU global-load sectors→0 (TMA로 이동)</text>
<text fill="#000000" font-family="sans-serif" font-size="11.00" text-anchor="middle" x="464.25" y="-32.2">NCU L768 G4: L2 92.41%, DRAM86.23% · HBM bytes 거의 동일</text>
<text fill="#000000" font-family="sans-serif" font-size="11.00" text-anchor="middle" x="464.25" y="-20.2">현재 N64 선택 포함: registers92 / shared41,984B / spill0</text>
<text fill="#000000" font-family="sans-serif" font-size="11.00" text-anchor="middle" x="464.25" y="-8.2">F2 측정은 이전 검증 유지 · F567은 최신 반복 측정</text>
</g>

</g>
</svg></svg>