<?xml version="1.0" encoding="UTF-8" standalone="no"?>
<!DOCTYPE svg PUBLIC "-//W3C//DTD SVG 1.1//EN"
 "http://www.w3.org/Graphics/SVG/1.1/DTD/svg11.dtd">
<!-- Generated by graphviz version 2.40.1 (0)
 -->
<!-- Title: G Pages: 1 -->
<svg width="841pt" height="1807pt"
 viewBox="0.00 0.00 841.00 1807.21" xmlns="http://www.w3.org/2000/svg" xmlns:xlink="http://www.w3.org/1999/xlink">
<g id="graph0" class="graph" transform="scale(1 1) rotate(0) translate(18 1789.2083)">
<title>G</title>
<polygon fill="#ffffff" stroke="transparent" points="-18,18 -18,-1789.2083 823,-1789.2083 823,18 -18,18"/>
<text text-anchor="middle" x="402.5" y="-1754.4083" font-family="sans-serif" font-size="16.00" fill="#000000">최신 H100 · Forward · 동일 Triton 융합 · L768 · BF16 B1 D=h=128</text>
<text text-anchor="middle" x="402.5" y="-1736.4083" font-family="sans-serif" font-size="16.00" fill="#000000">기준: 8c7d8b39 · 동일 융합 / 저장값 · H100 경로는 개발 checkout의 선택 옵션</text>
<text text-anchor="middle" x="402.5" y="-1718.4083" font-family="sans-serif" font-size="16.00" fill="#000000">전체 학습 FWD+BWD: 6.286 → 6.119 ms (1.027×) · compile + CUDA graph · dropout=0.25/RNG 포함</text>
<text text-anchor="middle" x="402.5" y="-1700.4083" font-family="sans-serif" font-size="16.00" fill="#000000">청색 Triton / 녹색 CuTe TMA+WGMMA / 보라 cuBLAS / 노랑 HBM · 색상 외곽선 = 커널 경계</text>
<text text-anchor="middle" x="402.5" y="-1682.4083" font-family="sans-serif" font-size="16.00" fill="#000000">아래 config는 실측 후보이며 shape 하드코딩이나 전체 cache 완료를 뜻하지 않음</text>
<g id="clust1" class="cluster">
<title>cluster_ln</title>
<path fill="#eef5ff" stroke="#2868ba" stroke-width="2" d="M99.25,-1451.125C99.25,-1451.125 327.25,-1451.125 327.25,-1451.125 333.25,-1451.125 339.25,-1457.125 339.25,-1463.125 339.25,-1463.125 339.25,-1592.125 339.25,-1592.125 339.25,-1598.125 333.25,-1604.125 327.25,-1604.125 327.25,-1604.125 99.25,-1604.125 99.25,-1604.125 93.25,-1604.125 87.25,-1598.125 87.25,-1592.125 87.25,-1592.125 87.25,-1463.125 87.25,-1463.125 87.25,-1457.125 93.25,-1451.125 99.25,-1451.125"/>
<text text-anchor="middle" x="213.25" y="-1591.325" font-family="monospace" font-size="11.00" fill="#000000">F1 · layer_norm_fwd_fused</text>
<text text-anchor="middle" x="213.25" y="-1579.325" font-family="monospace" font-size="11.00" fill="#000000">Triton · 1 kernel</text>
</g>
<g id="clust2" class="cluster">
<title>cluster_front</title>
<path fill="#eaf8f2" stroke="#168269" stroke-width="2" d="M74.25,-1102.125C74.25,-1102.125 358.25,-1102.125 358.25,-1102.125 364.25,-1102.125 370.25,-1108.125 370.25,-1114.125 370.25,-1114.125 370.25,-1361.125 370.25,-1361.125 370.25,-1367.125 364.25,-1373.125 358.25,-1373.125 358.25,-1373.125 74.25,-1373.125 74.25,-1373.125 68.25,-1373.125 62.25,-1367.125 62.25,-1361.125 62.25,-1361.125 62.25,-1114.125 62.25,-1114.125 62.25,-1108.125 68.25,-1102.125 74.25,-1102.125"/>
<text text-anchor="middle" x="216.25" y="-1360.325" font-family="monospace" font-size="11.00" fill="#000000">F2 · FrontSingleWarpgroupSm90</text>
<text text-anchor="middle" x="216.25" y="-1348.325" font-family="monospace" font-size="11.00" fill="#000000">CuTe · 1 kernel</text>
<text text-anchor="middle" x="216.25" y="-1336.325" font-family="monospace" font-size="11.00" fill="#000000">Triton 876.068 → CuTe 737.801 µs · 1.187×</text>
<text text-anchor="middle" x="216.25" y="-1324.325" font-family="monospace" font-size="11.00" fill="#000000">M128 / BK64 / BH32 / warps4 / stages2</text>
<text text-anchor="middle" x="216.25" y="-1312.325" font-family="monospace" font-size="11.00" fill="#000000">A 재사용 · 다음 B TMA ↔ 현재 epilogue</text>
<text text-anchor="middle" x="216.25" y="-1300.325" font-family="monospace" font-size="11.00" fill="#000000">output TMA ↔ 다음 GEMM · BF16 packed shuffle</text>
</g>
<g id="clust4" class="cluster">
<title>cluster_co</title>
<path fill="#f7f0ff" stroke="#8655ad" stroke-width="2" d="M90.25,-921.375C90.25,-921.375 264.25,-921.375 264.25,-921.375 270.25,-921.375 276.25,-927.375 276.25,-933.375 276.25,-933.375 276.25,-1001.375 276.25,-1001.375 276.25,-1007.375 270.25,-1013.375 264.25,-1013.375 264.25,-1013.375 90.25,-1013.375 90.25,-1013.375 84.25,-1013.375 78.25,-1007.375 78.25,-1001.375 78.25,-1001.375 78.25,-933.375 78.25,-933.375 78.25,-927.375 84.25,-921.375 90.25,-921.375"/>
<text text-anchor="middle" x="177.25" y="-1000.575" font-family="monospace" font-size="11.00" fill="#000000">F3a · cuBLAS bmm</text>
<text text-anchor="middle" x="177.25" y="-988.575" font-family="monospace" font-size="11.00" fill="#000000">별도 GEMM 호출</text>
</g>
<g id="clust5" class="cluster">
<title>cluster_ci</title>
<path fill="#f7f0ff" stroke="#8655ad" stroke-width="2" d="M296.25,-921.375C296.25,-921.375 470.25,-921.375 470.25,-921.375 476.25,-921.375 482.25,-927.375 482.25,-933.375 482.25,-933.375 482.25,-1001.375 482.25,-1001.375 482.25,-1007.375 476.25,-1013.375 470.25,-1013.375 470.25,-1013.375 296.25,-1013.375 296.25,-1013.375 290.25,-1013.375 284.25,-1007.375 284.25,-1001.375 284.25,-1001.375 284.25,-933.375 284.25,-933.375 284.25,-927.375 290.25,-921.375 296.25,-921.375"/>
<text text-anchor="middle" x="383.25" y="-1000.575" font-family="monospace" font-size="11.00" fill="#000000">F3b · cuBLAS bmm</text>
<text text-anchor="middle" x="383.25" y="-988.575" font-family="monospace" font-size="11.00" fill="#000000">별도 GEMM 호출</text>
</g>
<g id="clust6" class="cluster">
<title>cluster_lo</title>
<path fill="#eef5ff" stroke="#2868ba" stroke-width="2" d="M187.25,-593.125C187.25,-593.125 371.25,-593.125 371.25,-593.125 377.25,-593.125 383.25,-599.125 383.25,-605.125 383.25,-605.125 383.25,-795.125 383.25,-795.125 383.25,-801.125 377.25,-807.125 371.25,-807.125 371.25,-807.125 187.25,-807.125 187.25,-807.125 181.25,-807.125 175.25,-801.125 175.25,-795.125 175.25,-795.125 175.25,-605.125 175.25,-605.125 175.25,-599.125 181.25,-593.125 187.25,-593.125"/>
<text text-anchor="middle" x="279.25" y="-794.325" font-family="monospace" font-size="11.00" fill="#000000">F4 · _ln_mat_kernel</text>
<text text-anchor="middle" x="279.25" y="-782.325" font-family="monospace" font-size="11.00" fill="#000000">Triton · 1 kernel</text>
</g>
<g id="clust7" class="cluster">
<title>cluster_f567</title>
<path fill="#eaf8f2" stroke="#168269" stroke-width="2" d="M373.25,-162.75C373.25,-162.75 705.25,-162.75 705.25,-162.75 711.25,-162.75 717.25,-168.75 717.25,-174.75 717.25,-174.75 717.25,-564.125 717.25,-564.125 717.25,-570.125 711.25,-576.125 705.25,-576.125 705.25,-576.125 373.25,-576.125 373.25,-576.125 367.25,-576.125 361.25,-570.125 361.25,-564.125 361.25,-564.125 361.25,-174.75 361.25,-174.75 361.25,-168.75 367.25,-162.75 373.25,-162.75"/>
<text text-anchor="middle" x="539.25" y="-563.325" font-family="monospace" font-size="11.00" fill="#000000">F5 + F6 + F7 · ParityF567Sm90</text>
<text text-anchor="middle" x="539.25" y="-551.325" font-family="monospace" font-size="11.00" fill="#000000">CuTe TMA + WGMMA · 1 kernel</text>
<text text-anchor="middle" x="539.25" y="-539.325" font-family="monospace" font-size="11.00" fill="#000000">Triton 409.107 → CuTe 355.706 µs · 1.150×</text>
<text text-anchor="middle" x="539.25" y="-527.325" font-family="monospace" font-size="11.00" fill="#000000">M64 / N64 / K64 / GROUP_M1 / warps4 / stages2</text>
<text text-anchor="middle" x="539.25" y="-515.325" font-family="monospace" font-size="11.00" fill="#000000">초기 projection 입력 L2 prefetch ↔ gate GEMM</text>
<text text-anchor="middle" x="539.25" y="-503.325" font-family="monospace" font-size="11.00" fill="#000000">projection TMA ↔ FP32 sigmoid(BF16(logit))</text>
<text text-anchor="middle" x="539.25" y="-491.325" font-family="monospace" font-size="11.00" fill="#000000">P/G/Y와 분리된 네 번째 retired tile에 dropout TMA</text>
<text text-anchor="middle" x="539.25" y="-479.325" font-family="monospace" font-size="11.00" fill="#000000">공간·정렬 부족 시 기존 읽기 · 추가 shared/HBM 없음</text>
</g>
<!-- pair -->
<g id="node1" class="node">
<title>pair</title>
<ellipse fill="#f5f7f8" stroke="#88989d" cx="213.25" cy="-1649.1666" rx="27" ry="18"/>
<text text-anchor="middle" x="213.25" y="-1646.3666" font-family="sans-serif" font-size="11.00" fill="#000000">pair</text>
</g>
<!-- ln0 -->
<g id="node4" class="node">
<title>ln0</title>
<path fill="#ffffff" stroke="#2868ba" d="M314.75,-1560.125C314.75,-1560.125 111.75,-1560.125 111.75,-1560.125 105.75,-1560.125 99.75,-1554.125 99.75,-1548.125 99.75,-1548.125 99.75,-1536.125 99.75,-1536.125 99.75,-1530.125 105.75,-1524.125 111.75,-1524.125 111.75,-1524.125 314.75,-1524.125 314.75,-1524.125 320.75,-1524.125 326.75,-1530.125 326.75,-1536.125 326.75,-1536.125 326.75,-1548.125 326.75,-1548.125 326.75,-1554.125 320.75,-1560.125 314.75,-1560.125"/>
<text text-anchor="middle" x="213.25" y="-1539.325" font-family="sans-serif" font-size="11.00" fill="#000000">μ = mean(pair), rstd = rsqrt(var + ε)</text>
</g>
<!-- pair&#45;&gt;ln0 -->
<g id="edge2" class="edge">
<title>pair&#45;&gt;ln0</title>
<path fill="none" stroke="#566d7b" d="M213.25,-1631.0085C213.25,-1625.1402 213.25,-1618.2454 213.25,-1610.9351"/>
<polygon fill="#566d7b" stroke="#566d7b" points="215.5251,-1610.6223 213.25,-1604.1223 210.9751,-1610.6223 215.5251,-1610.6223"/>
</g>
<!-- f5675 -->
<g id="node24" class="node">
<title>f5675</title>
<path fill="#ffffff" stroke="#168269" d="M494.25,-210.75C494.25,-210.75 434.25,-210.75 434.25,-210.75 428.25,-210.75 422.25,-204.75 422.25,-198.75 422.25,-198.75 422.25,-186.75 422.25,-186.75 422.25,-180.75 428.25,-174.75 434.25,-174.75 434.25,-174.75 494.25,-174.75 494.25,-174.75 500.25,-174.75 506.25,-180.75 506.25,-186.75 506.25,-186.75 506.25,-198.75 506.25,-198.75 506.25,-204.75 500.25,-210.75 494.25,-210.75"/>
<text text-anchor="middle" x="464.25" y="-189.95" font-family="sans-serif" font-size="11.00" fill="#000000">y = pair + v</text>
</g>
<!-- pair&#45;&gt;f5675 -->
<g id="edge26" class="edge">
<title>pair&#45;&gt;f5675</title>
<path fill="none" stroke="#84929a" stroke-dasharray="5,2" d="M230.4426,-1635.0199C235.5964,-1631.3441 241.432,-1627.6989 247.25,-1625.125 286.7945,-1607.6305 311.2474,-1634.2691 342.25,-1604.125 356.992,-1589.7913 425.9728,-1264.705 432.25,-1245.125 453.3977,-1179.1599 460.4132,-1162.5707 494.25,-1102.125 517.3862,-1060.7948 533.2127,-1056.2933 553.25,-1013.375 558.6071,-1001.9005 679.4252,-588.4693 682.25,-576.125 686.831,-556.1062 710.5778,-414.218 712.25,-393.75 713.5528,-377.8031 713.4847,-373.7023 712.25,-357.75 708.0151,-303.0378 731.4447,-275.152 693.25,-235.75 668.9184,-210.6493 573.0568,-199.8415 513.3435,-195.4685"/>
<polygon fill="#84929a" stroke="#84929a" points="513.2513,-193.1813 506.6067,-194.9911 512.9296,-197.7199 513.2513,-193.1813"/>
<text text-anchor="middle" x="604.25" y="-906.175" font-family="sans-serif" font-size="9.00" fill="#000000">residual</text>
</g>
<!-- mask -->
<g id="node2" class="node">
<title>mask</title>
<ellipse fill="#f5f7f8" stroke="#88989d" cx="501.25" cy="-1649.1666" rx="44.6985" ry="18"/>
<text text-anchor="middle" x="501.25" y="-1646.3666" font-family="sans-serif" font-size="11.00" fill="#000000">pair mask</text>
</g>
<!-- front2 -->
<g id="node9" class="node">
<title>front2</title>
<path fill="#ffffff" stroke="#168269" d="M305.75,-1150.125C305.75,-1150.125 120.75,-1150.125 120.75,-1150.125 114.75,-1150.125 108.75,-1144.125 108.75,-1138.125 108.75,-1138.125 108.75,-1126.125 108.75,-1126.125 108.75,-1120.125 114.75,-1114.125 120.75,-1114.125 120.75,-1114.125 305.75,-1114.125 305.75,-1114.125 311.75,-1114.125 317.75,-1120.125 317.75,-1126.125 317.75,-1126.125 317.75,-1138.125 317.75,-1138.125 317.75,-1144.125 311.75,-1150.125 305.75,-1150.125"/>
<text text-anchor="middle" x="213.25" y="-1135.325" font-family="sans-serif" font-size="11.00" fill="#000000">left = BF16(pL × σ(gL)) × mask</text>
<text text-anchor="middle" x="213.25" y="-1123.325" font-family="sans-serif" font-size="11.00" fill="#000000">right = BF16(pR × σ(gR)) × mask</text>
</g>
<!-- mask&#45;&gt;front2 -->
<g id="edge7" class="edge">
<title>mask&#45;&gt;front2</title>
<path fill="none" stroke="#84929a" stroke-dasharray="5,2" d="M505.8222,-1631.1257C520.8947,-1566.992 562.1448,-1347.6986 454.25,-1232.125 414.4494,-1189.4918 397.0891,-1184.5534 343.25,-1162.125 334.2171,-1158.3621 324.6253,-1155.0241 314.9049,-1152.0733"/>
<polygon fill="#84929a" stroke="#84929a" points="315.3812,-1149.8421 308.5033,-1150.1896 314.0967,-1154.207 315.3812,-1149.8421"/>
</g>
<!-- ds -->
<g id="node3" class="node">
<title>ds</title>
<ellipse fill="#f5f7f8" stroke="#88989d" cx="348.25" cy="-1649.1666" rx="94.0904" ry="24.0833"/>
<text text-anchor="middle" x="348.25" y="-1652.3666" font-family="sans-serif" font-size="11.00" fill="#000000">dropout scale</text>
<text text-anchor="middle" x="348.25" y="-1640.3666" font-family="sans-serif" font-size="11.00" fill="#000000">난수/scale 생성은 별도</text>
</g>
<!-- f5674 -->
<g id="node23" class="node">
<title>f5674</title>
<path fill="#ffffff" stroke="#168269" d="M523.25,-271.75C523.25,-271.75 405.25,-271.75 405.25,-271.75 399.25,-271.75 393.25,-265.75 393.25,-259.75 393.25,-259.75 393.25,-247.75 393.25,-247.75 393.25,-241.75 399.25,-235.75 405.25,-235.75 405.25,-235.75 523.25,-235.75 523.25,-235.75 529.25,-235.75 535.25,-241.75 535.25,-247.75 535.25,-247.75 535.25,-259.75 535.25,-259.75 535.25,-265.75 529.25,-271.75 523.25,-271.75"/>
<text text-anchor="middle" x="464.25" y="-250.95" font-family="sans-serif" font-size="11.00" fill="#000000">v = v × dropout_scale</text>
</g>
<!-- ds&#45;&gt;f5674 -->
<g id="edge25" class="edge">
<title>ds&#45;&gt;f5674</title>
<path fill="none" stroke="#84929a" stroke-dasharray="5,2" d="M361.0164,-1625.2387C364.3004,-1618.524 367.6397,-1611.1393 370.25,-1604.125 407.2852,-1504.6069 408.7629,-1476.9026 431.25,-1373.125 444.7118,-1310.9988 433.1087,-1291.7123 455.25,-1232.125 494.801,-1125.6842 542.3568,-1117.6752 587.25,-1013.375 666.9684,-828.1657 664.9349,-773.0547 708.25,-576.125 725.8961,-495.8979 731.5611,-475.6221 738.25,-393.75 739.5528,-377.8031 747.3372,-370.919 738.25,-357.75 715.2129,-324.3653 614.5904,-292.2248 541.9593,-272.7281"/>
<polygon fill="#84929a" stroke="#84929a" points="542.329,-270.4723 535.4624,-270.9977 541.1579,-274.8691 542.329,-270.4723"/>
</g>
<!-- ln1 -->
<g id="node5" class="node">
<title>ln1</title>
<path fill="#ffffff" stroke="#2868ba" d="M309.75,-1499.125C309.75,-1499.125 116.75,-1499.125 116.75,-1499.125 110.75,-1499.125 104.75,-1493.125 104.75,-1487.125 104.75,-1487.125 104.75,-1475.125 104.75,-1475.125 104.75,-1469.125 110.75,-1463.125 116.75,-1463.125 116.75,-1463.125 309.75,-1463.125 309.75,-1463.125 315.75,-1463.125 321.75,-1469.125 321.75,-1475.125 321.75,-1475.125 321.75,-1487.125 321.75,-1487.125 321.75,-1493.125 315.75,-1499.125 309.75,-1499.125"/>
<text text-anchor="middle" x="213.25" y="-1478.325" font-family="sans-serif" font-size="11.00" fill="#000000">x_n = (pair − μ) × rstd × γin + βin</text>
</g>
<!-- ln0&#45;&gt;ln1 -->
<g id="edge1" class="edge">
<title>ln0&#45;&gt;ln1</title>
<path fill="none" stroke="#566d7b" d="M213.25,-1523.823C213.25,-1518.2738 213.25,-1512.0797 213.25,-1506.1682"/>
<polygon fill="#566d7b" stroke="#566d7b" points="215.5251,-1505.9141 213.25,-1499.4141 210.9751,-1505.9141 215.5251,-1505.9141"/>
</g>
<!-- xn -->
<g id="node6" class="node">
<title>xn</title>
<path fill="#fff7df" stroke="#b78b43" d="M273.25,-1426.8523C273.25,-1428.6581 246.357,-1430.125 213.25,-1430.125 180.143,-1430.125 153.25,-1428.6581 153.25,-1426.8523 153.25,-1426.8523 153.25,-1397.3977 153.25,-1397.3977 153.25,-1395.5919 180.143,-1394.125 213.25,-1394.125 246.357,-1394.125 273.25,-1395.5919 273.25,-1397.3977 273.25,-1397.3977 273.25,-1426.8523 273.25,-1426.8523"/>
<path fill="none" stroke="#b78b43" d="M273.25,-1426.8523C273.25,-1425.0464 246.357,-1423.5795 213.25,-1423.5795 180.143,-1423.5795 153.25,-1425.0464 153.25,-1426.8523"/>
<text text-anchor="middle" x="213.25" y="-1409.325" font-family="sans-serif" font-size="11.00" fill="#000000">x_n [M,128] · HBM</text>
</g>
<!-- ln1&#45;&gt;xn -->
<g id="edge3" class="edge">
<title>ln1&#45;&gt;xn</title>
<path fill="none" stroke="#566d7b" d="M213.25,-1462.9961C213.25,-1455.0565 213.25,-1445.611 213.25,-1437.0269"/>
<polygon fill="#566d7b" stroke="#566d7b" points="215.5251,-1436.8724 213.25,-1430.3724 210.9751,-1436.8725 215.5251,-1436.8724"/>
</g>
<!-- front0 -->
<g id="node7" class="node">
<title>front0</title>
<path fill="#ffffff" stroke="#168269" d="M321.25,-1281.125C321.25,-1281.125 105.25,-1281.125 105.25,-1281.125 99.25,-1281.125 93.25,-1275.125 93.25,-1269.125 93.25,-1269.125 93.25,-1257.125 93.25,-1257.125 93.25,-1251.125 99.25,-1245.125 105.25,-1245.125 105.25,-1245.125 321.25,-1245.125 321.25,-1245.125 327.25,-1245.125 333.25,-1251.125 333.25,-1257.125 333.25,-1257.125 333.25,-1269.125 333.25,-1269.125 333.25,-1275.125 327.25,-1281.125 321.25,-1281.125"/>
<text text-anchor="middle" x="213.25" y="-1266.325" font-family="sans-serif" font-size="11.00" fill="#000000">4 projections: pL=x_n·WL, gL=x_n·WLg</text>
<text text-anchor="middle" x="213.25" y="-1254.325" font-family="sans-serif" font-size="11.00" fill="#000000">pR=x_n·WR, gR=x_n·WRg</text>
</g>
<!-- xn&#45;&gt;front0 -->
<g id="edge6" class="edge">
<title>xn&#45;&gt;front0</title>
<path fill="none" stroke="#566d7b" d="M213.25,-1393.8547C213.25,-1389.6849 213.25,-1384.9533 213.25,-1379.8235"/>
<polygon fill="#566d7b" stroke="#566d7b" points="215.5251,-1379.6249 213.25,-1373.1249 210.9751,-1379.625 215.5251,-1379.6249"/>
</g>
<!-- f5671 -->
<g id="node20" class="node">
<title>f5671</title>
<path fill="#ffffff" stroke="#168269" d="M663.25,-460.125C663.25,-460.125 565.25,-460.125 565.25,-460.125 559.25,-460.125 553.25,-454.125 553.25,-448.125 553.25,-448.125 553.25,-436.125 553.25,-436.125 553.25,-430.125 559.25,-424.125 565.25,-424.125 565.25,-424.125 663.25,-424.125 663.25,-424.125 669.25,-424.125 675.25,-430.125 675.25,-436.125 675.25,-436.125 675.25,-448.125 675.25,-448.125 675.25,-454.125 669.25,-460.125 663.25,-460.125"/>
<text text-anchor="middle" x="614.25" y="-439.325" font-family="sans-serif" font-size="11.00" fill="#000000">glogit = x_n @ Wg</text>
</g>
<!-- xn&#45;&gt;f5671 -->
<g id="edge24" class="edge">
<title>xn&#45;&gt;f5671</title>
<path fill="none" stroke="#84929a" stroke-dasharray="5,2" d="M243.0177,-1394.08C252.6611,-1389.042 263.6185,-1384.1293 274.25,-1381.125 295.4899,-1375.1228 357.9407,-1389.0242 373.25,-1373.125 394.849,-1350.6937 364.5668,-1116.4034 385.25,-1093.125 407.3804,-1068.2178 437.658,-1106.5004 459.25,-1081.125 472.715,-1065.3006 465.2711,-1054.2612 459.25,-1034.375 457.2841,-1027.8819 447.0379,-1026.6932 451.25,-1021.375 460.8883,-1009.2057 475.6117,-1025.5443 485.25,-1013.375 510.6367,-981.3217 512.4961,-951.8635 485.25,-921.375 464.09,-897.6969 435.41,-937.0531 414.25,-913.375 407.4128,-905.7241 418.5721,-901.2802 421.25,-891.375 428.5864,-864.2381 437.0099,-851.4029 421.25,-828.125 413.1991,-816.2336 399.3009,-828.0164 391.25,-816.125 387.6371,-810.7886 388.1497,-589.7747 391.25,-584.125 425.1087,-522.4244 498.4144,-483.692 551.7628,-462.5498"/>
<polygon fill="#84929a" stroke="#84929a" points="552.6074,-464.6624 557.8386,-460.1834 550.9561,-460.4226 552.6074,-464.6624"/>
<text text-anchor="middle" x="527.25" y="-949.175" font-family="sans-serif" font-size="9.00" fill="#000000">x_n 재사용</text>
</g>
<!-- front1 -->
<g id="node8" class="node">
<title>front1</title>
<path fill="#ffffff" stroke="#168269" d="M243.25,-1220.125C243.25,-1220.125 183.25,-1220.125 183.25,-1220.125 177.25,-1220.125 171.25,-1214.125 171.25,-1208.125 171.25,-1208.125 171.25,-1196.125 171.25,-1196.125 171.25,-1190.125 177.25,-1184.125 183.25,-1184.125 183.25,-1184.125 243.25,-1184.125 243.25,-1184.125 249.25,-1184.125 255.25,-1190.125 255.25,-1196.125 255.25,-1196.125 255.25,-1208.125 255.25,-1208.125 255.25,-1214.125 249.25,-1220.125 243.25,-1220.125"/>
<text text-anchor="middle" x="213.25" y="-1199.325" font-family="sans-serif" font-size="11.00" fill="#000000">σ(gL), σ(gR)</text>
</g>
<!-- front0&#45;&gt;front1 -->
<g id="edge4" class="edge">
<title>front0&#45;&gt;front1</title>
<path fill="none" stroke="#566d7b" d="M213.25,-1244.823C213.25,-1239.2738 213.25,-1233.0797 213.25,-1227.1682"/>
<polygon fill="#566d7b" stroke="#566d7b" points="215.5251,-1226.9141 213.25,-1220.4141 210.9751,-1226.9141 215.5251,-1226.9141"/>
</g>
<!-- pre -->
<g id="node11" class="node">
<title>pre</title>
<path fill="#fff7df" stroke="#b78b43" d="M452.25,-1076.7733C452.25,-1079.1059 419.9784,-1081.0007 380.25,-1081.0007 340.5216,-1081.0007 308.25,-1079.1059 308.25,-1076.7733 308.25,-1076.7733 308.25,-1038.7267 308.25,-1038.7267 308.25,-1036.3941 340.5216,-1034.4993 380.25,-1034.4993 419.9784,-1034.4993 452.25,-1036.3941 452.25,-1038.7267 452.25,-1038.7267 452.25,-1076.7733 452.25,-1076.7733"/>
<path fill="none" stroke="#b78b43" d="M452.25,-1076.7733C452.25,-1074.4407 419.9784,-1072.5459 380.25,-1072.5459 340.5216,-1072.5459 308.25,-1074.4407 308.25,-1076.7733"/>
<text text-anchor="middle" x="380.25" y="-1060.95" font-family="sans-serif" font-size="11.00" fill="#000000">raw pL,gL,pR,gR · HBM</text>
<text text-anchor="middle" x="380.25" y="-1048.95" font-family="sans-serif" font-size="11.00" fill="#000000">backward용 저장</text>
</g>
<!-- front0&#45;&gt;pre -->
<g id="edge9" class="edge">
<title>front0&#45;&gt;pre</title>
<path fill="none" stroke="#84929a" stroke-dasharray="5,2" d="M235.2467,-1244.854C243.8849,-1237.4157 253.7473,-1228.5888 262.25,-1220.125 291.7046,-1190.8054 304.3521,-1186.6118 324.25,-1150.125 336.8478,-1127.0243 326.2694,-1115.416 340.25,-1093.125 341.7462,-1090.7394 343.4505,-1088.422 345.2924,-1086.19"/>
<polygon fill="#84929a" stroke="#84929a" points="347.1674,-1087.5063 349.8068,-1081.1455 343.7769,-1084.472 347.1674,-1087.5063"/>
<text text-anchor="middle" x="328.75" y="-1164.925" font-family="sans-serif" font-size="9.00" fill="#000000">store</text>
</g>
<!-- front1&#45;&gt;front2 -->
<g id="edge5" class="edge">
<title>front1&#45;&gt;front2</title>
<path fill="none" stroke="#566d7b" d="M213.25,-1184.0983C213.25,-1175.8345 213.25,-1165.905 213.25,-1156.9491"/>
<polygon fill="#566d7b" stroke="#566d7b" points="215.5251,-1156.8339 213.25,-1150.3339 210.9751,-1156.834 215.5251,-1156.8339"/>
</g>
<!-- lr -->
<g id="node10" class="node">
<title>lr</title>
<path fill="#fff7df" stroke="#b78b43" d="M294.25,-1072.4773C294.25,-1074.2831 257.9445,-1075.75 213.25,-1075.75 168.5555,-1075.75 132.25,-1074.2831 132.25,-1072.4773 132.25,-1072.4773 132.25,-1043.0227 132.25,-1043.0227 132.25,-1041.2169 168.5555,-1039.75 213.25,-1039.75 257.9445,-1039.75 294.25,-1041.2169 294.25,-1043.0227 294.25,-1043.0227 294.25,-1072.4773 294.25,-1072.4773"/>
<path fill="none" stroke="#b78b43" d="M294.25,-1072.4773C294.25,-1070.6714 257.9445,-1069.2045 213.25,-1069.2045 168.5555,-1069.2045 132.25,-1070.6714 132.25,-1072.4773"/>
<text text-anchor="middle" x="213.25" y="-1054.95" font-family="sans-serif" font-size="11.00" fill="#000000">left / right [256,L,L] · HBM</text>
</g>
<!-- front2&#45;&gt;lr -->
<g id="edge8" class="edge">
<title>front2&#45;&gt;lr</title>
<path fill="none" stroke="#566d7b" d="M213.25,-1114.1209C213.25,-1104.599 213.25,-1092.7665 213.25,-1082.4042"/>
<polygon fill="#566d7b" stroke="#566d7b" points="215.5251,-1082.3461 213.25,-1075.8461 210.9751,-1082.3461 215.5251,-1082.3461"/>
</g>
<!-- co0 -->
<g id="node12" class="node">
<title>co0</title>
<path fill="#ffffff" stroke="#8655ad" d="M251.75,-969.375C251.75,-969.375 102.75,-969.375 102.75,-969.375 96.75,-969.375 90.75,-963.375 90.75,-957.375 90.75,-957.375 90.75,-945.375 90.75,-945.375 90.75,-939.375 96.75,-933.375 102.75,-933.375 102.75,-933.375 251.75,-933.375 251.75,-933.375 257.75,-933.375 263.75,-939.375 263.75,-945.375 263.75,-945.375 263.75,-957.375 263.75,-957.375 263.75,-963.375 257.75,-969.375 251.75,-969.375"/>
<text text-anchor="middle" x="177.25" y="-948.575" font-family="sans-serif" font-size="11.00" fill="#000000">tri[:h] = left[:h] @ right[:h]ᵀ</text>
</g>
<!-- lr&#45;&gt;co0 -->
<g id="edge10" class="edge">
<title>lr&#45;&gt;co0</title>
<path fill="none" stroke="#566d7b" d="M207.1431,-1039.7049C205.1559,-1033.833 202.8186,-1026.9267 200.3411,-1019.6061"/>
<polygon fill="#566d7b" stroke="#566d7b" points="202.4704,-1018.8006 198.2317,-1013.3729 198.1605,-1020.2592 202.4704,-1018.8006"/>
</g>
<!-- ci0 -->
<g id="node13" class="node">
<title>ci0</title>
<path fill="#ffffff" stroke="#8655ad" d="M457.75,-969.375C457.75,-969.375 308.75,-969.375 308.75,-969.375 302.75,-969.375 296.75,-963.375 296.75,-957.375 296.75,-957.375 296.75,-945.375 296.75,-945.375 296.75,-939.375 302.75,-933.375 308.75,-933.375 308.75,-933.375 457.75,-933.375 457.75,-933.375 463.75,-933.375 469.75,-939.375 469.75,-945.375 469.75,-945.375 469.75,-957.375 469.75,-957.375 469.75,-963.375 463.75,-969.375 457.75,-969.375"/>
<text text-anchor="middle" x="383.25" y="-948.575" font-family="sans-serif" font-size="11.00" fill="#000000">tri[h:] = left[h:]ᵀ @ right[h:]</text>
</g>
<!-- lr&#45;&gt;ci0 -->
<g id="edge11" class="edge">
<title>lr&#45;&gt;ci0</title>
<path fill="none" stroke="#566d7b" d="M242.0882,-1039.7049C252.6169,-1033.1167 265.2266,-1025.2264 278.5175,-1016.9098"/>
<polygon fill="#566d7b" stroke="#566d7b" points="279.9479,-1018.6985 284.2513,-1013.322 277.5343,-1014.8414 279.9479,-1018.6985"/>
</g>
<!-- tri -->
<g id="node14" class="node">
<title>tri</title>
<path fill="#fff7df" stroke="#b78b43" d="M414.25,-885.7277C414.25,-888.913 353.7408,-891.5005 279.25,-891.5005 204.7592,-891.5005 144.25,-888.913 144.25,-885.7277 144.25,-885.7277 144.25,-833.7723 144.25,-833.7723 144.25,-830.587 204.7592,-827.9995 279.25,-827.9995 353.7408,-827.9995 414.25,-830.587 414.25,-833.7723 414.25,-833.7723 414.25,-885.7277 414.25,-885.7277"/>
<path fill="none" stroke="#b78b43" d="M414.25,-885.7277C414.25,-882.5423 353.7408,-879.9549 279.25,-879.9549 204.7592,-879.9549 144.25,-882.5423 144.25,-885.7277"/>
<text text-anchor="middle" x="279.25" y="-868.95" font-family="sans-serif" font-size="11.00" fill="#000000">tri [256,L,L] · HBM</text>
<text text-anchor="middle" x="279.25" y="-856.95" font-family="sans-serif" font-size="11.00" fill="#000000">두 GEMM이 최종 buffer의 다른 slice에 직접 기록</text>
<text text-anchor="middle" x="279.25" y="-844.95" font-family="sans-serif" font-size="11.00" fill="#000000">cat kernel 없음</text>
</g>
<!-- co0&#45;&gt;tri -->
<g id="edge12" class="edge">
<title>co0&#45;&gt;tri</title>
<path fill="none" stroke="#566d7b" d="M197.4019,-933.2728C209.1914,-922.6825 224.5038,-908.9277 238.6901,-896.1843"/>
<polygon fill="#566d7b" stroke="#566d7b" points="240.5419,-897.579 243.8571,-891.5429 237.5013,-894.1941 240.5419,-897.579"/>
</g>
<!-- ci0&#45;&gt;tri -->
<g id="edge13" class="edge">
<title>ci0&#45;&gt;tri</title>
<path fill="none" stroke="#566d7b" d="M362.7029,-933.2728C350.5768,-922.5896 334.7955,-908.6861 320.2248,-895.8492"/>
<polygon fill="#566d7b" stroke="#566d7b" points="321.718,-894.1327 315.3368,-891.5429 318.7101,-897.5468 321.718,-894.1327"/>
</g>
<!-- lo0 -->
<g id="node15" class="node">
<title>lo0</title>
<path fill="#ffffff" stroke="#2868ba" d="M325.25,-763.125C325.25,-763.125 233.25,-763.125 233.25,-763.125 227.25,-763.125 221.25,-757.125 221.25,-751.125 221.25,-751.125 221.25,-739.125 221.25,-739.125 221.25,-733.125 227.25,-727.125 233.25,-727.125 233.25,-727.125 325.25,-727.125 325.25,-727.125 331.25,-727.125 337.25,-733.125 337.25,-739.125 337.25,-739.125 337.25,-751.125 337.25,-751.125 337.25,-757.125 331.25,-763.125 325.25,-763.125"/>
<text text-anchor="middle" x="279.25" y="-742.325" font-family="sans-serif" font-size="11.00" fill="#000000">μout, rstdout 계산</text>
</g>
<!-- tri&#45;&gt;lo0 -->
<g id="edge16" class="edge">
<title>tri&#45;&gt;lo0</title>
<path fill="none" stroke="#566d7b" d="M279.25,-828.1248C279.25,-823.5967 279.25,-818.7988 279.25,-813.8839"/>
<polygon fill="#566d7b" stroke="#566d7b" points="281.5251,-813.6235 279.25,-807.1235 276.9751,-813.6235 281.5251,-813.6235"/>
</g>
<!-- lo1 -->
<g id="node16" class="node">
<title>lo1</title>
<path fill="#ffffff" stroke="#2868ba" d="M357.25,-702.125C357.25,-702.125 201.25,-702.125 201.25,-702.125 195.25,-702.125 189.25,-696.125 189.25,-690.125 189.25,-690.125 189.25,-678.125 189.25,-678.125 189.25,-672.125 195.25,-666.125 201.25,-666.125 201.25,-666.125 357.25,-666.125 357.25,-666.125 363.25,-666.125 369.25,-672.125 369.25,-678.125 369.25,-678.125 369.25,-690.125 369.25,-690.125 369.25,-696.125 363.25,-702.125 357.25,-702.125"/>
<text text-anchor="middle" x="279.25" y="-681.325" font-family="sans-serif" font-size="11.00" fill="#000000">xhat = (tri − μout) × rstdout</text>
</g>
<!-- lo0&#45;&gt;lo1 -->
<g id="edge14" class="edge">
<title>lo0&#45;&gt;lo1</title>
<path fill="none" stroke="#566d7b" d="M279.25,-726.823C279.25,-721.2738 279.25,-715.0797 279.25,-709.1682"/>
<polygon fill="#566d7b" stroke="#566d7b" points="281.5251,-708.9141 279.25,-702.4141 276.9751,-708.9141 281.5251,-708.9141"/>
</g>
<!-- lo2 -->
<g id="node17" class="node">
<title>lo2</title>
<path fill="#ffffff" stroke="#2868ba" d="M358.75,-641.125C358.75,-641.125 199.75,-641.125 199.75,-641.125 193.75,-641.125 187.75,-635.125 187.75,-629.125 187.75,-629.125 187.75,-617.125 187.75,-617.125 187.75,-611.125 193.75,-605.125 199.75,-605.125 199.75,-605.125 358.75,-605.125 358.75,-605.125 364.75,-605.125 370.75,-611.125 370.75,-617.125 370.75,-617.125 370.75,-629.125 370.75,-629.125 370.75,-635.125 364.75,-641.125 358.75,-641.125"/>
<text text-anchor="middle" x="279.25" y="-620.325" font-family="sans-serif" font-size="11.00" fill="#000000">xn_out = xhat × γout + βout</text>
</g>
<!-- lo1&#45;&gt;lo2 -->
<g id="edge15" class="edge">
<title>lo1&#45;&gt;lo2</title>
<path fill="none" stroke="#566d7b" d="M279.25,-665.823C279.25,-660.2738 279.25,-654.0797 279.25,-648.1682"/>
<polygon fill="#566d7b" stroke="#566d7b" points="281.5251,-647.9141 279.25,-641.4141 276.9751,-647.9141 281.5251,-647.9141"/>
</g>
<!-- norm -->
<g id="node18" class="node">
<title>norm</title>
<path fill="#fff7df" stroke="#b78b43" d="M348.75,-461.1483C348.75,-463.4809 317.599,-465.3757 279.25,-465.3757 240.901,-465.3757 209.75,-463.4809 209.75,-461.1483 209.75,-461.1483 209.75,-423.1017 209.75,-423.1017 209.75,-420.7691 240.901,-418.8743 279.25,-418.8743 317.599,-418.8743 348.75,-420.7691 348.75,-423.1017 348.75,-423.1017 348.75,-461.1483 348.75,-461.1483"/>
<path fill="none" stroke="#b78b43" d="M348.75,-461.1483C348.75,-458.8157 317.599,-456.9209 279.25,-456.9209 240.901,-456.9209 209.75,-458.8157 209.75,-461.1483"/>
<text text-anchor="middle" x="279.25" y="-445.325" font-family="sans-serif" font-size="11.00" fill="#000000">xn_out [M,256] · HBM</text>
<text text-anchor="middle" x="279.25" y="-433.325" font-family="sans-serif" font-size="11.00" fill="#000000">μout, rstdout도 저장</text>
</g>
<!-- lo2&#45;&gt;norm -->
<g id="edge17" class="edge">
<title>lo2&#45;&gt;norm</title>
<path fill="none" stroke="#566d7b" d="M279.25,-605.1083C279.25,-574.0465 279.25,-510.1083 279.25,-472.2038"/>
<polygon fill="#566d7b" stroke="#566d7b" points="281.5251,-471.943 279.25,-465.443 276.9751,-471.9431 281.5251,-471.943"/>
</g>
<!-- f5670 -->
<g id="node19" class="node">
<title>f5670</title>
<path fill="#ffffff" stroke="#168269" d="M496.75,-393.75C496.75,-393.75 385.75,-393.75 385.75,-393.75 379.75,-393.75 373.75,-387.75 373.75,-381.75 373.75,-381.75 373.75,-369.75 373.75,-369.75 373.75,-363.75 379.75,-357.75 385.75,-357.75 385.75,-357.75 496.75,-357.75 496.75,-357.75 502.75,-357.75 508.75,-363.75 508.75,-369.75 508.75,-369.75 508.75,-381.75 508.75,-381.75 508.75,-387.75 502.75,-393.75 496.75,-393.75"/>
<text text-anchor="middle" x="441.25" y="-372.95" font-family="sans-serif" font-size="11.00" fill="#000000">proj = xn_out @ Wpᵀ</text>
</g>
<!-- norm&#45;&gt;f5670 -->
<g id="edge23" class="edge">
<title>norm&#45;&gt;f5670</title>
<path fill="none" stroke="#566d7b" d="M333.6443,-419.8384C340.5881,-416.9934 347.8254,-414.0281 355.1183,-411.0401"/>
<polygon fill="#566d7b" stroke="#566d7b" points="356.1001,-413.0964 361.2523,-408.5268 354.375,-408.8861 356.1001,-413.0964"/>
</g>
<!-- f5673 -->
<g id="node22" class="node">
<title>f5673</title>
<path fill="#ffffff" stroke="#168269" d="M522.75,-332.75C522.75,-332.75 405.75,-332.75 405.75,-332.75 399.75,-332.75 393.75,-326.75 393.75,-320.75 393.75,-320.75 393.75,-308.75 393.75,-308.75 393.75,-302.75 399.75,-296.75 405.75,-296.75 405.75,-296.75 522.75,-296.75 522.75,-296.75 528.75,-296.75 534.75,-302.75 534.75,-308.75 534.75,-308.75 534.75,-320.75 534.75,-320.75 534.75,-326.75 528.75,-332.75 522.75,-332.75"/>
<text text-anchor="middle" x="464.25" y="-311.95" font-family="sans-serif" font-size="11.00" fill="#000000">v = BF16(proj) × gate</text>
</g>
<!-- f5670&#45;&gt;f5673 -->
<g id="edge19" class="edge">
<title>f5670&#45;&gt;f5673</title>
<path fill="none" stroke="#566d7b" d="M448.1508,-357.448C450.2886,-351.7782 452.6802,-345.435 454.9527,-339.4081"/>
<polygon fill="#566d7b" stroke="#566d7b" points="457.1895,-339.9238 457.3541,-333.0391 452.9321,-338.3185 457.1895,-339.9238"/>
</g>
<!-- saved -->
<g id="node25" class="node">
<title>saved</title>
<path fill="#fff7df" stroke="#b78b43" d="M750.75,-137.3983C750.75,-139.7309 701.6703,-141.6257 641.25,-141.6257 580.8297,-141.6257 531.75,-139.7309 531.75,-137.3983 531.75,-137.3983 531.75,-99.3517 531.75,-99.3517 531.75,-97.0191 580.8297,-95.1243 641.25,-95.1243 701.6703,-95.1243 750.75,-97.0191 750.75,-99.3517 750.75,-99.3517 750.75,-137.3983 750.75,-137.3983"/>
<path fill="none" stroke="#b78b43" d="M750.75,-137.3983C750.75,-135.0657 701.6703,-133.1709 641.25,-133.1709 580.8297,-133.1709 531.75,-135.0657 531.75,-137.3983"/>
<text text-anchor="middle" x="641.25" y="-121.575" font-family="sans-serif" font-size="11.00" fill="#000000">proj / gate [M,128] · HBM</text>
<text text-anchor="middle" x="641.25" y="-109.575" font-family="sans-serif" font-size="11.00" fill="#000000">backward용 store만 · fwd 재읽기 없음</text>
</g>
<!-- f5670&#45;&gt;saved -->
<g id="edge27" class="edge">
<title>f5670&#45;&gt;saved</title>
<path fill="none" stroke="#84929a" stroke-dasharray="5,2" d="M508.7076,-357.6839C521.365,-351.5771 533.3864,-343.473 542.25,-332.75 570.3531,-298.7515 546.0783,-276.3802 563.25,-235.75 577.0059,-203.2021 600.0656,-170.0218 617.5536,-147.2813"/>
<polygon fill="#84929a" stroke="#84929a" points="619.4511,-148.5472 621.6445,-142.0191 615.8589,-145.7545 619.4511,-148.5472"/>
<text text-anchor="middle" x="582.75" y="-251.55" font-family="sans-serif" font-size="9.00" fill="#000000">proj 저장</text>
</g>
<!-- f5672 -->
<g id="node21" class="node">
<title>f5672</title>
<path fill="#ffffff" stroke="#168269" d="M693.25,-393.75C693.25,-393.75 535.25,-393.75 535.25,-393.75 529.25,-393.75 523.25,-387.75 523.25,-381.75 523.25,-381.75 523.25,-369.75 523.25,-369.75 523.25,-363.75 529.25,-357.75 535.25,-357.75 535.25,-357.75 693.25,-357.75 693.25,-357.75 699.25,-357.75 705.25,-363.75 705.25,-369.75 705.25,-369.75 705.25,-381.75 705.25,-381.75 705.25,-387.75 699.25,-393.75 693.25,-393.75"/>
<text text-anchor="middle" x="614.25" y="-372.95" font-family="sans-serif" font-size="11.00" fill="#000000">gate = sigmoid(BF16(glogit))</text>
</g>
<!-- f5671&#45;&gt;f5672 -->
<g id="edge18" class="edge">
<title>f5671&#45;&gt;f5672</title>
<path fill="none" stroke="#566d7b" d="M614.25,-423.9877C614.25,-416.8172 614.25,-408.4574 614.25,-400.7309"/>
<polygon fill="#566d7b" stroke="#566d7b" points="616.5251,-400.3653 614.25,-393.8653 611.9751,-400.3654 616.5251,-400.3653"/>
</g>
<!-- f5672&#45;&gt;f5673 -->
<g id="edge20" class="edge">
<title>f5672&#45;&gt;f5673</title>
<path fill="none" stroke="#566d7b" d="M569.6512,-357.6131C552.4994,-350.6381 532.7942,-342.6247 515.0975,-335.428"/>
<polygon fill="#566d7b" stroke="#566d7b" points="515.5552,-333.1582 508.677,-332.817 513.8411,-337.373 515.5552,-333.1582"/>
</g>
<!-- f5672&#45;&gt;saved -->
<g id="edge28" class="edge">
<title>f5672&#45;&gt;saved</title>
<path fill="none" stroke="#84929a" stroke-dasharray="5,2" d="M592.7138,-357.6906C589.6692,-354.0722 586.9878,-350.0481 585.25,-345.75 574.8996,-320.1504 576.0993,-308.0302 589.25,-283.75 593.4834,-275.9339 600.3867,-279.1905 605.25,-271.75 629.9083,-234.0246 637.7382,-181.3198 640.1873,-148.5491"/>
<polygon fill="#84929a" stroke="#84929a" points="642.47,-148.5083 640.6324,-141.8713 637.9301,-148.2056 642.47,-148.5083"/>
<text text-anchor="middle" x="656.25" y="-251.55" font-family="sans-serif" font-size="9.00" fill="#000000">BF16 gate 저장</text>
</g>
<!-- f5673&#45;&gt;f5674 -->
<g id="edge21" class="edge">
<title>f5673&#45;&gt;f5674</title>
<path fill="none" stroke="#566d7b" d="M464.25,-296.448C464.25,-290.8988 464.25,-284.7047 464.25,-278.7932"/>
<polygon fill="#566d7b" stroke="#566d7b" points="466.5251,-278.5391 464.25,-272.0391 461.9751,-278.5391 466.5251,-278.5391"/>
</g>
<!-- f5674&#45;&gt;f5675 -->
<g id="edge22" class="edge">
<title>f5674&#45;&gt;f5675</title>
<path fill="none" stroke="#566d7b" d="M464.25,-235.448C464.25,-229.8988 464.25,-223.7047 464.25,-217.7932"/>
<polygon fill="#566d7b" stroke="#566d7b" points="466.5251,-217.5391 464.25,-211.0391 461.9751,-217.5391 466.5251,-217.5391"/>
</g>
<!-- y -->
<g id="node26" class="node">
<title>y</title>
<path fill="#fff7df" stroke="#b78b43" d="M517.75,-133.1023C517.75,-134.9081 493.7704,-136.375 464.25,-136.375 434.7296,-136.375 410.75,-134.9081 410.75,-133.1023 410.75,-133.1023 410.75,-103.6477 410.75,-103.6477 410.75,-101.8419 434.7296,-100.375 464.25,-100.375 493.7704,-100.375 517.75,-101.8419 517.75,-103.6477 517.75,-103.6477 517.75,-133.1023 517.75,-133.1023"/>
<path fill="none" stroke="#b78b43" d="M517.75,-133.1023C517.75,-131.2964 493.7704,-129.8295 464.25,-129.8295 434.7296,-129.8295 410.75,-131.2964 410.75,-133.1023"/>
<text text-anchor="middle" x="464.25" y="-115.575" font-family="sans-serif" font-size="11.00" fill="#000000">y [M,128] · HBM</text>
</g>
<!-- f5675&#45;&gt;y -->
<g id="edge29" class="edge">
<title>f5675&#45;&gt;y</title>
<path fill="none" stroke="#566d7b" d="M464.25,-174.7459C464.25,-165.224 464.25,-153.3915 464.25,-143.0292"/>
<polygon fill="#566d7b" stroke="#566d7b" points="466.5251,-142.9711 464.25,-136.4711 461.9751,-142.9711 466.5251,-142.9711"/>
</g>
<!-- note -->
<g id="node27" class="node">
<title>note</title>
<polygon fill="#ffffff" stroke="#b6c4cf" points="642.75,-70 279.75,-70 279.75,0 648.75,0 648.75,-64 642.75,-70"/>
<polyline fill="none" stroke="#b6c4cf" points="642.75,-70 642.75,-64 "/>
<polyline fill="none" stroke="#b6c4cf" points="648.75,-64 642.75,-64 "/>
<text text-anchor="middle" x="464.25" y="-56.2" font-family="sans-serif" font-size="11.00" fill="#000000">F2는 목표 달성 · F567 L384 미달 / L768은15% 경계</text>
<text text-anchor="middle" x="464.25" y="-44.2" font-family="sans-serif" font-size="11.00" fill="#000000">F567: dropout LSU global&#45;load sectors→0 (TMA로 이동)</text>
<text text-anchor="middle" x="464.25" y="-32.2" font-family="sans-serif" font-size="11.00" fill="#000000">NCU L768 G4: L2 92.41%, DRAM86.23% · HBM bytes 거의 동일</text>
<text text-anchor="middle" x="464.25" y="-20.2" font-family="sans-serif" font-size="11.00" fill="#000000">현재 N64 선택 포함: registers92 / shared41,984B / spill0</text>
<text text-anchor="middle" x="464.25" y="-8.2" font-family="sans-serif" font-size="11.00" fill="#000000">F2 측정은 이전 검증 유지 · F567은 최신 반복 측정</text>
</g>
<!-- y&#45;&gt;note -->
</g>
</svg>
